<?xml version="1.0" standalone="no"?>
<!DOCTYPE svg PUBLIC "-//W3C//DTD SVG 1.1//EN" "http://www.w3.org/Graphics/SVG/1.1/DTD/svg11.dtd">
<svg xmlns="http://www.w3.org/2000/svg">
<metadata>Generated by Fontastic.me</metadata>
<defs>
<font id="education" horiz-adv-x="512">
<font-face font-family="education" units-per-em="512" ascent="480" descent="-32"/>
<missing-glyph horiz-adv-x="512" />

<glyph glyph-name="abacus" unicode="&#97;" d="M486 51l-8 0 0 435c0 15-11 26-26 26-14 0-25-11-25-26l0-25-26 0c0 14-11 25-26 25-14 0-25-11-25-25l-17 0c0 14-11 25-26 25-14 0-25-11-25-25l-17 0c0 14-12 25-26 25-15 0-26-11-26-25l-34 0c0 14-11 25-25 25-15 0-26-11-26-25l-43 0 0 25c0 15-11 26-25 26-15 0-26-11-26-26l0-435-8 0c-15 0-26-11-26-25l0-17c0-6 3-9 9-9l102 0c5 0 8 3 8 9l0 17c0 14-11 25-25 25l-9 0 0 60 26 0c0-15 11-26 26-26 14 0 25 11 25 26l34 0c0-15 11-26 26-26 14 0 25 11 25 26l43 0c0-15 11-26 26-26 14 0 25 11 25 26l17 0c0-15 11-26 26-26 15 0 26 11 26 26l17 0 0-60-9 0c-14 0-25-11-25-25l0-17c0-6 3-9 8-9l102 0c6 0 9 3 9 9l0 17c0 14-11 25-26 25z m-111 179l0 9c0 5 4 8 9 8 5 0 9-4 9-8l0-17c0-5-4-9-9-9-5 0-9 4-9 9z m9 35c-15 0-26-12-26-26l-17 0c0 14-11 26-25 26-15 0-26-12-26-26l-17 0c0 14-11 26-26 26-14 0-25-12-25-26l-17 0c0 14-11 26-26 26-14 0-25-12-25-26l-69 0 0 94 17 0c0-15 11-26 26-26 15 0 26 11 26 26l17 0c0-15 11-26 25-26 15 0 26 11 26 26l17 0c0-15 11-26 26-26 14 0 25 11 25 26l17 0c0-15 11-26 26-26 14 0 25 11 25 26l69 0 0-94-17 0c0 14-11 26-26 26z m-77-35l0 9c0 5 4 8 9 8 5 0 8-4 8-8l0-17c0-5-3-9-8-9-5 0-9 4-9 9z m-68 0l0 9c0 5 3 8 8 8 6 0 9-4 9-8l0-17c0-5-3-9-9-9-5 0-8 4-8 9z m-68 0l0 9c0 5 3 8 8 8 5 0 9-4 9-8l0-17c0-5-4-9-9-9-5 0-8 4-8 9z m-34 111l0-8c0-5-4-9-9-9-5 0-9 4-9 9l0 17c0 5 4 8 9 8 5 0 9-4 9-8z m68 0l0-8c0-5-4-9-9-9-5 0-8 4-8 9l0 17c0 5 3 8 8 8 5 0 9-4 9-8z m68 0l0-8c0-5-3-9-8-9-6 0-9 4-9 9l0 17c0 5 3 8 9 8 5 0 8-4 8-8z m68 0l0-8c0-5-3-9-8-9-5 0-9 4-9 9l0 17c0 5 4 8 9 8 5 0 8-4 8-8z m26 120c0 5 3 8 8 8 6 0 9-4 9-8l0-17c0-5-3-9-9-9-5 0-8 4-8 9z m-68 0c0 5 3 8 8 8 5 0 9-4 9-8l0-17c0-5-4-9-9-9-5 0-8 4-8 9z m-69 0c0 5 4 8 9 8 5 0 8-4 8-8l0-17c0-5-3-9-8-9-5 0-9 4-9 9z m-85 0c0 5 3 8 9 8 5 0 8-4 8-8l0-17c0-5-3-9-8-9-6 0-9 4-9 9z m-17-17c0-15 11-26 26-26 14 0 25 11 25 26l34 0c0-15 11-26 26-26 14 0 26 11 26 26l17 0c0-15 11-26 25-26 15 0 26 11 26 26l17 0c0-15 11-26 25-26 15 0 26 11 26 26l26 0 0-94-69 0c0 14-11 25-25 25-15 0-26-11-26-25l-17 0c0 14-11 25-25 25-15 0-26-11-26-25l-17 0c0 14-11 25-26 25-14 0-25-11-25-25l-17 0c0 14-11 25-26 25-15 0-26-11-26-25l-17 0 0 94z m-26-418l0-9-85 0 0 9c0 5 3 8 9 8l68 0c5 0 8-3 8-8z m-51 25l0 435c0 5 4 9 9 9 5 0 8-3 8-9l0-435z m94 60c0-5-3-9-8-9-6 0-9 4-9 9l0 17c0 5 3 9 9 9 5 0 8-5 8-9z m85 0c0-5-3-9-8-9-5 0-9 4-9 9l0 17c0 5 4 9 9 9 5 0 8-5 8-9z m94 0c0-5-3-9-8-9-5 0-9 4-9 9l0 17c0 5 4 9 9 9 5 0 8-5 8-9z m69 0c0-5-4-9-9-9-5 0-9 4-9 9l0 17c0 5 4 9 9 9 5 0 9-5 9-9z m17 17c0 15-11 26-26 26-15 0-26-11-26-26l-17 0c0 15-11 26-25 26-15 0-26-11-26-26l-43 0c0 15-11 26-25 26-15 0-26-11-26-26l-34 0c0 15-11 26-25 26-15 0-26-11-26-26l-26 0 0 94 69 0c0-15 11-26 25-26 15 0 26 11 26 26l17 0c0-15 11-26 25-26 15 0 26 11 26 26l17 0c0-15 11-26 26-26 14 0 25 11 25 26l17 0c0-15 11-26 26-26 15 0 26 11 26 26l17 0 0-94z m34 102l0 256c0 6 3 9 8 9 5 0 9-3 9-9l0-435-17 0 0 179z m51-213l-85 0 0 9c0 5 3 8 8 8l68 0c6 0 9-3 9-8z"/>
<glyph glyph-name="apple" unicode="&#98;" d="M230 69c0-4-3-8-8-8-5 0-8 4-8 8 0 5 3 8 8 8 5 0 8-3 8-8z m108 96c0-4-4-8-8-8-5 0-8 4-8 8 0 5 3 8 8 8 4 0 8-3 8-8z m-32 27c0-4-3-8-8-8-4 0-8 4-8 8 0 5 4 8 8 8 5 0 8-3 8-8z m77 20c-9 21-25 37-46 46-10 4-21 6-32 6-15 0-28-3-41-10l0 28c0 5-3 8-8 8-5 0-8-3-8-8l0-28c-13 7-26 10-41 10-11 0-22-2-32-6-21-9-37-25-46-46-9-21-9-44 0-65l47-114c8-20 28-33 49-33 7 0 14 1 21 4 3 2 7 3 10 6 3-3 7-4 10-6 7-3 14-4 21-4 21 0 41 13 49 33l47 114c9 21 9 44-65 44z m-15-59l-47-114c-6-14-19-23-34-23-5 0-10 1-14 3-5 2-8 4-11 7-2 2-4 2-6 2-2 0-4 0-6-2-3-3-6-5-11-7-4-2-9-3-14-3-15 0-28 9-34 23l-47 114c-7 17-7 36 0 52 7 17 20 31 37 38 9 3 17 5 26 5 16 0 32-6 44-16 0 0 1 0 1 0 0 0 0 0 0 0 0-1 1-1 1-1 0 0 0 0 0 0 1 0 1 0 2 0 0 0 0 0 0 0 0 0 1-1 1-1 0 0 1 1 1 1 0 0 0 0 0 0 1 0 1 0 2 0 0 0 0 0 0 0 0 0 1 0 1 1 0 0 0 0 0 0 0 0 1 0 1 0 12 10 28 16 44 16 9 0 17-2 26-5 17-7 30-21 37-38 7-16 7-35 0-52z m-237 99c4 0 8 4 8 8l0 244c0 4-4 8-8 8-5 0-9-4-9-8l0-244c0-4 4-8 9-8z m62 126c5 0 8 3 8 8l0 118c0 4-3 8-8 8-4 0-8-4-8-8l0-118c0-5 4-8 8-8z m0-98c5 0 8 3 8 8l0 65c0 5-3 8-8 8-4 0-8-3-8-8l0-65c0-5 4-8 8-8z m63 27c5 0 8 3 8 8l0 189c0 4-3 8-8 8-5 0-8-4-8-8l0-189c0-5 3-8 8-8z m63-27c4 0 8 3 8 8l0 216c0 4-4 8-8 8-5 0-8-4-8-8l0-216c0-5 3-8 8-8z m62 150c5 0 9 4 9 8l0 66c0 4-4 8-9 8-4 0-8-4-8-8l0-66c0-4 4-8 8-8z m0-178c5 0 9 4 9 8l0 146c0 4-4 8-9 8-4 0-8-4-8-8l0-146c0-4 4-8 8-8z"/>
<glyph glyph-name="astronomy" unicode="&#99;" d="M249 404l-11 5c-3 1-7 0-8-3-2-4 0-7 3-8l11-5c1 0 2 0 2 0 3 0 5 1 6 4 1 3 0 6-3 7z m-32 13l-99 41c-4 1-7-1-8-4-2-3 0-6 3-8l99-40c1 0 2 0 3 0 2 0 4 1 5 3 1 4 0 7-3 8z m192-117c1 3-1 7-4 8l-59 24c-3 1-6 0-8-3-1-3 1-7 4-8l59-24c0 0 1-1 2-1 2 0 5 2 6 4z m-321 178l-20 8c-3 1-6 0-8-3-1-3 1-7 4-8l20-8c1-1 1-1 2-1 3 0 5 2 6 4 1 3 0 7-4 8z m406-177c0 3-4 5-7 4l-7-2c-2 5-5 8-9 10l1 4c1 2 0 5-2 7l-31 22c0 0 0 0 0 0-1 0-1 0-1 0 0 0 0 0 0 0l-65 27 7 17 25-11-2-3c0-2 0-3 0-5 1-1 2-2 4-3l19-8c1 0 2 0 2 0 3 0 5 1 6 3l18 44c1 4 0 7-3 8l-20 8c-1 1-3 1-5 0-1 0-2-1-3-3l-1-4-25 11 2 4c1 3-1 6-4 8-3 1-7-1-8-4l-1-4-43 17 2 5c1 3-1 6-4 8-3 1-6-1-8-4l-1-4-31 12c-3 2-7 0-8-3l-10-26c-1-1-1-3 0-4 0-2 2-3 3-4l31-12-7-17-193 78 2 4c0 2 0 4 0 5-1 2-2 3-4 3l-54 23c-2 0-4 0-5 0-2-1-3-2-3-4l-33-81c-1-3 0-6 3-8l55-22c1 0 1 0 2 0 1 0 2 0 3 0 1 1 2 2 3 4l1 4 177-72 0-13c-14-3-25-15-25-31l0-18-14 0c-3 0-6-3-6-6l0-32c0-3 3-6 6-6l14 0-68-190-2 0c-2 0-5-2-6-4l-8-25c-1-2 0-4 1-5 1-2 3-3 5-3l62 0c2 0 3 1 5 3 1 1 1 3 0 5l-8 25c-1 1-2 2-3 3l54 148 53-148c-1-1-2-2-3-3l-8-25c-1-2-1-4 0-5 2-2 3-3 5-3l62 0c2 0 4 1 5 3 1 1 2 3 1 5l-8 25c-1 2-4 4-6 4l-2 0-68 190 14 0c3 0 6 3 6 6l0 32c0 3-3 6-6 6l-14 0 0 15 27 21 81-33c1 0 1-1 1-1 0 0 1 0 1 0 0 0 38-6 38-6 2 0 5 2 5 4l2 4c2-1 4-1 6-1 3 0 5 0 8 1 5 3 9 7 11 12 1 1 1 3 2 4l8 2c3 1 5 5 4 8z m-419 110l-44 17 29 70 43-18z m363-5l-13-32-8 3 13 33z m-23-1l-6-14-25 10 6 14z m-36 15l-6-15-43 18 6 14z m-85 17l6 15 25-10-6-15z m32-26l42-17-6-17-43 18z m-216 55l318-129-21-50-317 129z m140-239l12 0 0-24-60-166-20 0z m-83-215l5 12 36 0 4-12z m158 0l4 12 36 0 5-12z m30 25l-20 0-60 166 0 24 12 0z m-47 202l-79 0 0 20 79 0z m-58 32l0 18c0 11 8 19 19 19 10 0 18-8 18-19l0-18z m48 29c-4 10-13 18-23 20l0 8 39-16z m146-20l-25 4 19 47 21-14z m25 11c-2-3-6-6-9-5l6 16c2-2 3-4 4-7 0 0 0 0 0 0 0-1 0-2-1-4z m-200 4c-2 0-4 0-5-1-1-1-2-3-2-5 0-1 1-3 2-4 1-1 3-2 5-2 1 0 3 1 4 2 1 1 2 3 2 4 0 2-1 4-2 5-1 1-3 1-4 1z"/>
<glyph glyph-name="atom" unicode="&#100;" d="M434 331c-9 4-20 7-31 10 3 11 5 22 7 32 8 53-1 90-26 105-7 4-16 6-25 6-29 0-66-22-104-58-8 8-16 15-24 22-42 33-79 44-104 30-16-10-26-29-28-56-1-4 2-8 7-8 4-1 8 2 9 7 1 15 6 34 20 42 19 11 50 1 86-28 7-6 15-13 23-21-16-17-31-36-46-57-27-2-52-6-75-12-4 16-6 31-8 45 0 4-4 7-9 7-4-1-7-5-7-9 1-15 4-31 9-47-11-3-21-6-30-10-50-19-78-46-78-75 0-29 28-56 78-75 9-4 20-7 31-10-3-11-5-21-7-32-8-53 1-90 26-105 7-4 16-6 25-6 29 0 65 21 102 57 8-7 16-15 24-21 30-24 57-36 79-36 9 0 18 2 25 6 25 15 34 52 26 105-2 10-4 21-7 32 17 4 33 10 46 16 5 2 6 7 4 11-1 4-6 6-10 4-13-6-28-11-44-16-7 23-15 46-26 69 11 24 20 48 27 71 61-17 97-44 97-70 0-16-15-30-27-39-4-2-5-7-2-11 3-4 8-5 11-2 22 15 34 33 34 52 0 29-28 56-78 75z m-75 137c6 0 12-2 17-4 18-11 25-43 18-89-2-9-4-19-6-30-23 6-49 10-75 12-15 21-30 40-46 57 3 3 6 6 8 8 32 30 62 46 84 46z m-104-66c13-13 25-27 37-43-12 0-24 1-36 1-12 0-25-1-37-1 12 15 24 30 36 43z m0-293c-12 13-25 28-37 45 12-1 25-1 38-1 12 0 25 0 37 1-12-17-25-32-38-45z m1 60c-18 0-34 1-50 2-9 13-18 27-26 41-9 14-16 29-23 43 7 15 15 30 24 45 8 14 17 28 26 41 16 2 32 2 49 2 17 0 33 0 48-1 9-14 18-28 26-43 9-14 17-29 24-44-7-14-14-28-23-42-8-15-17-29-26-42-16-1-32-2-49-2z m-71 4c-21 2-39 6-56 10 5 17 11 35 19 53 6-11 11-21 17-32 7-11 13-21 20-31z m1 166c-7-10-13-20-20-31-6-11-12-23-18-34-8 19-15 38-20 55 17 5 37 8 58 10z m-170-83c0 26 36 52 96 69 7-22 16-46 27-70-11-23-19-46-26-68-61 17-97 43-97 69z m137-212c-6 0-12 2-17 5-18 10-25 42-18 88 2 9 4 20 6 30 23-5 47-9 72-12 16-21 32-41 48-58-3-2-5-5-7-7-32-29-62-46-84-46z m240 93c7-46 0-78-18-89-19-10-50 0-86 29-7 6-15 13-22 20 16 17 32 37 47 58 26 3 50 6 73 12 2-11 4-21 6-30z m-11 45c-17-4-36-7-56-9 7 10 13 21 20 31 6 11 11 21 17 32 7-18 14-36 19-54z m-19 92c-6 11-12 22-18 34-7 11-13 21-20 32 21-3 41-6 58-10-5-18-12-37-20-56z m-107 23c-23 0-41-18-41-41 0-22 18-41 41-41 23 0 41 19 41 41 0 23-18 41-41 41z m0-65c-14 0-25 11-25 24 0 14 11 25 25 25 14 0 25-11 25-25 0-13-11-24-25-24z"/>
<glyph glyph-name="axis" unicode="&#101;" d="M504 297c4 0 8 4 8 8 0 5-4 8-8 8-105 0-191 86-191 191 0 4-3 8-8 8-4 0-8-4-8-8 0-114 93-207 207-207z m-496-82c-4 0-8-4-8-8 0-5 4-8 8-8 105 0 191-86 191-191 0-4 3-8 8-8 4 0 8 4 8 8 0 114-93 207-207 207z m264-50c5 0 9 4 9 8 0 5-4 9-9 9l-8 0 0 148 8 0c5 0 9 4 9 9 0 4-4 8-9 8l-8 0 0 66 8 0c5 0 9 4 9 8 0 5-4 8-9 8l-8 0 0 67 8 0c5 0 9 3 9 8 0 4-4 8-9 8l-32 0c-5 0-9-4-9-8 0-5 4-8 9-8l8 0 0-67-8 0c-5 0-9-3-9-8 0-4 4-8 9-8l8 0 0-66-8 0c-5 0-9-4-9-8 0-5 4-9 9-9l8 0 0-66-66 0 0 8c0 5-4 9-9 9-4 0-8-4-8-9l0-8-66 0 0 8c0 5-4 9-8 9-5 0-8-4-8-9l0-8-67 0 0 8c0 5-3 9-8 9-4 0-8-4-8-9l0-32c0-5 4-9 8-9 5 0 8 4 8 9l0 8 67 0 0-8c0-5 3-9 8-9 4 0 8 4 8 9l0 8 66 0 0-8c0-5 4-9 8-9 5 0 9 4 9 9l0 8 66 0 0-66-8 0c-5 0-9-4-9-9 0-4 4-8 9-8l8 0 0-66-8 0c-5 0-9-4-9-8 0-5 4-8 9-8l8 0 0-67-8 0c-5 0-9-3-9-8 0-4 4-8 9-8l32 0c5 0 9 4 9 8 0 5-4 8-9 8l-8 0 0 67 8 0c5 0 9 3 9 8 0 4-4 8-9 8l-8 0 0 66z m232 116c-5 0-8-4-8-9l0-8-67 0 0 8c0 5-3 9-8 9-4 0-8-4-8-9l0-8-66 0 0 8c0 5-4 9-8 9-5 0-9-4-9-9l0-8-41 0c-5 0-8-3-8-8 0-5 3-8 8-8l41 0 0-8c0-5 4-9 9-9 4 0 8 4 8 9l0 8 66 0 0-8c0-5 4-9 8-9 5 0 8 4 8 9l0 8 67 0 0-8c0-5 3-9 8-9 4 0 8 4 8 9l0 32c0 5-4 9-8 9z"/>
<glyph glyph-name="backpack" unicode="&#102;" d="M457 97l-18 230c-3 29-17 54-37 71l35 82c2 4 0 10-5 12-5 2-10 0-12-5l-34-78c-9 5-18 8-27 10l35 80c2 5 0 10-5 12-5 2-11 0-12-5l-38-84c-1 0-3 0-5 0l-11 0 0 12c0 25-21 46-46 46l-42 0c-25 0-46-21-46-46l0-12-7 0c-3 0-7 0-10 0l-38 84c-2 5-8 7-13 5-4-2-6-7-4-12l36-81c0 0 0 0 0 0-9-2-18-6-27-10l-34 75c-2 5-8 7-13 5-5-2-7-7-5-12l37-81c-19-17-32-41-35-69l-21-226c-3-26 6-51 23-70 17-19 41-30 67-30l226 0c24 0 47 10 63 27 16 18 25 43 23 70z m-249 337c0 14 12 26 27 26l42 0c14 0 27-12 27-26l0-12-96 0z m212-395c-13-12-30-20-49-20l-226 0c-20 0-39 9-52 24-15 15-22 35-20 55l22 227c3 36 28 65 61 74 0 0 1 1 1 1 1 0 1 0 1 0 3 1 7 1 10 2 1 0 2 0 2 0 4 1 7 1 11 1l152 0c3 0 5 0 7 0 1-1 2-1 3-1 14-2 29-8 40-16 2-1 3-2 5-2 17-14 29-35 32-59l18-230c2-22-5-41-18-56z m-126 326l-77 0c-48 0-86-39-86-86l-19-201c-1-6 4-10 8-11 6-1 10 4 11 9l19 202c0 38 30 67 67 67l77 0c37 0 67-29 67-68l19-201c1-5 5-9 10-9 6 1 10 5 10 11l-20 200c0 48-38 87-86 87z m29-192l-134 0c-6 0-10-4-10-10 0-6 4-10 10-10l95 0 0-30c-11-6-19-20-19-37 0-21 13-38 29-38 16 0 29 17 29 38 0 17-8 31-19 37l0 30 19 0c6 0 9 4 9 10 0 6-3 10-9 10z m-29-106c-4 0-10 8-10 19 0 12 6 20 10 20 4 0 10-8 10-20 0-11-6-19-10-19z m28 215c-2 4-5 6-9 6l-32 0-17 32c-2 4-5 6-8 6-4 0-7-3-9-6l-16-32-33 0c-4 0-7-3-9-6-1-3 0-7 1-10l26-35-7-34c0-3 1-7 3-9 2-1 4-2 6-2 1 0 3 0 4 1l34 17 32-17c4-2 8-1 11 1 4 2 5 6 4 9l-8 34 26 35c2 3 3 7 1 10z m-45-37c-2-2-3-5-2-8l5-18-20 9c-2 1-5 1-8 0l-19-9 3 18c0 3 0 6-1 9l-18 23 19 0c4 0 8 1 9 4l11 21 10-20c2-4 5-5 9-5l19 0z"/>
<glyph glyph-name="backpack-1" unicode="&#103;" d="M345 108l-178 0c-6 0-9-4-9-10l0-39c0-6 3-10 9-10l178 0c6 0 9 4 9 10l0 39c0 6-3 10-9 10z m-10-39l-158 0 0 20 158 0z m140 90l-16 0-15 187c-5 56-51 97-107 97l-3 0c-5 34-33 59-68 59l-20 0c-35 0-63-25-68-59-55-1-100-42-106-96 0-1 0-2 0-2 0 0 0 0 0 0l-18-187-17 0c-20 0-37-17-37-38l0-33c0-38 30-67 67-67l34 0c13-7 27-10 42-10l231 0c15 0 29 3 41 10l30 0c37 0 67 29 67 68l0 33c0 21-17 38-37 38z m-121 195c6 0 10 4 10 10 0 6-4 10-10 10l-39 0c-6 0-10-4-10-10 0-6 4-10 10-10l10 0 0-104c-21-9-45-14-69-14-24 0-48 5-69 14l0 104 10 0c6 0 10 4 10 10 0 6-4 10-10 10l-39 0c-6 0-10-4-10-10 0-6 4-10 10-10l9 0 0-94c-33 19-60 49-75 87 5 42 41 74 83 76 1 0 3 0 4 0l157 0c1 0 2 0 4 0 1 0 1 0 2 0 1 0 1 0 2 0 1 0 2 0 3 0 0 0 0 0 1 0 37-5 66-33 74-70-14-40-42-72-77-93l0 94 9 0z m-108 128l20 0c23 0 43-16 48-39l-116 0c5 23 25 39 48 39z m-226-395l0 33c0 10 8 18 17 18l15 0-3-26c0-2 0-5 0-7 0-23 8-45 23-62 0-1 1-2 2-3 0 0 0 0 1-1l-8 0c-27 0-47 21-47 48z m124-57c-21 0-42 8-55 24-15 15-22 36-20 56l4 37c0 1 0 2 0 2l15 163c19-33 47-58 79-75l0-40-9 0-10-10 0-39 10-10 39 0 10 10 0 39-10 10-10 0 0 32c22-8 45-12 69-12 24 0 47 4 69 12l0-32-10 0-10-10 0-39 10-10 39 0 10 10 0 39-10 10-9 0 0 41c34 17 62 44 82 77l16-208c0-3 0-7 0-11 0-11-3-22-8-31-3-5-6-10-11-15-4-4-9-8-14-11-1 0-1 0-1-1-1 0-1 0-1 0-10-5-22-8-34-8z m43 147l0-19-20 0 0 19z m158 0l0-19-20 0 0 19z m147-90c0-27-21-48-47-48l-4 0c7 8 12 17 16 27 4 11 6 23 6 35 0 4 0 7 0 11l-2 26 14 0c9 0 17-8 17-18z"/>
<glyph glyph-name="backpack-2" unicode="&#104;" d="M445 91l-18 215c-4 31-20 57-44 73 0 1 0 2 0 4 0 56 11 71 19 74l36 9c3 1 6 4 7 7 0 4-1 7-4 9l-36 27c-2 1-4 2-5 2-17 1-33-4-44-17-26-27-28-77-28-99l-18 0c0 30-24 54-54 54-30 0-54-24-54-54l-18 0c0 22-2 73-28 100-11 12-26 18-44 17-1 0-3-1-5-2l-36-27c-3-2-5-5-4-9 1-3 4-6 8-7l35-9c9-3 19-18 20-75 0-1 0-2 0-4-25-16-42-42-45-74l-17-212c-2-24 6-47 22-65 16-18 38-28 63-28l211 0c22 0 44 9 59 25 15 17 23 41 22 66z m-76 391c7 7 16 12 28 12l18-14-18-4c-27-9-32-50-33-87l-3 1c0 0-1 0-1 0-5 2-9 3-14 4 0 18 1 66 23 88z m-113-51c20 0 36-16 36-36l-72 0c0 20 16 36 36 36z m-108-42c-1 37-6 78-33 87l-18 4 18 14c12 0 21-5 29-12 22-23 23-70 23-88-4-1-7-2-11-3-1 0-2 0-3-1-1 0-1 0-2 0z m262-352c-12-12-28-19-46-19l-43 0c36 22 61 62 61 108l0 134c0 45-36 81-81 81l-90 0c-45 0-81-36-81-81l0-134c0-46 25-86 61-108l-38 0c-19 0-37 8-50 22-13 14-19 33-18 52l18 212c3 34 29 62 61 71 2 0 5 1 8 1l1 0c4 1 7 1 11 1l144 0c3 0 5 0 8 0l4-2 0 0c6 0 10-1 16-3l1 0 1-1c28-11 47-36 51-67l18-215c1-21-5-39-17-52z m-154-19c-59 0-108 48-108 108l0 134c0 35 28 63 63 63l90 0c35 0 63-28 63-63l0-134c0-60-49-108-108-108z m45 251l-90 0c-15 0-27-11-27-27l0-35c0-16 12-27 27-27l90 0c15 0 27 11 27 27l0 35c0 16-12 27-27 27z m9-62c0-6-4-9-9-9l-90 0c-5 0-9 3-9 9l0 35c0 6 4 9 9 9l90 0c5 0 9-3 9-9z"/>
<glyph glyph-name="bacteria" unicode="&#105;" d="M448 381l-14 0c-2 25-11 49-28 69l9 10c4 3 4 8 0 11-3 4-8 4-11 0l-10-10c-19 17-43 27-69 29l0 14c0 4-3 8-8 8-4 0-8-4-8-8l0-14c-26-2-49-12-69-29l-10 10c-3 4-8 4-11 0-3-3-3-8 0-11l10-10-50-49-10 9c-3 3-8 3-11 0-3-3-3-8 0-11l9-10-49-50-10 10c-3 3-8 3-11 0-4-3-4-8 0-12l9-9c-17-20-26-44-28-69l-14 0c-4 0-8-4-8-8 0-5 4-8 8-8l14 0c2-25 11-49 28-69l-29-29c-10-11-16-25-16-41 0-15 6-29 16-40 11-11 26-17 41-17 15 0 29 6 40 17l8 8c16 16 42 16 58 0 16-16 16-42 0-58-3-3-3-8 0-12 1-1 3-2 6-2 2 0 4 1 5 2 23 23 23 59 0 81-22 23-58 23-81 0l-7-7c-8-8-18-12-29-12-11 0-21 4-29 12-8 7-12 18-12 28 0 11 4 22 12 29l29 29c19-16 43-26 69-28l0-14c0-4 3-8 8-8 4 0 8 4 8 8l0 14c26 2 49 12 69 28l10-9c1-2 3-3 5-3 2 0 4 1 6 3 3 3 3 8 0 11l-10 10 50 49 10-9c1-2 3-3 5-3 3 0 5 1 6 3 3 3 3 8 0 11l-9 10 49 50 10-10c1-2 3-2 6-2 2 0 4 0 5 2 4 3 4 8 0 11l-9 10c17 20 26 44 28 69l14 0c4 0 8 4 8 8 0 5-4 8-8 8z m-60-79l-122-122c-19-19-44-30-71-30-27 0-52 11-71 30-40 39-40 103 0 142l122 122c19 19 44 30 71 30 27 0 52-11 71-30 40-39 40-103 0-142z m-47 47c0-4-4-8-8-8-5 0-9 4-9 8 0 5 4 8 9 8 4 0 8-3 8-8z m0 46c0-4-4-8-8-8-5 0-9 4-9 8 0 5 4 9 9 9 4 0 8-4 8-9z m-84 38c-3-3-3-9 0-12 4-3 9-3 12 0 27 27 70 27 96 0 27-26 27-69 0-96l-122-122c-13-13-30-20-48-20-18 0-35 7-48 20-13 13-20 30-20 48 0 18 7 35 20 48l99 99c3 3 3 9 0 12-3 3-8 3-12 0l-99-99c-16-16-25-38-25-60 0-23 9-44 25-60 16-16 37-25 60-25 22 0 44 9 60 25l122 122c33 33 33 87 0 120-33 33-87 33-120 0z m-69-158c0-5-4-8-9-8-4 0-8 3-8 8 0 4 4 8 8 8 5 0 9-4 9-8z m50 23c-2-2-3-2-7-2-4-1-11-1-17-7-3-3-3-8 0-12 1-1 3-2 5-2 3 0 5 1 6 2 2 2 3 2 7 2 4 0 11 1 17 7 7 6 7 13 7 18 0 3 0 4 2 6 2 2 3 2 6 2 5 0 12 0 18 7 6 6 7 13 7 17 0 4 0 5 2 7 3 3 3 8 0 11-4 3-9 3-12 0-6-6-7-13-7-17 0-4 0-5-2-7-1-1-2-2-6-2-5 0-11 0-18-6-6-7-6-14-6-18 0-4-1-5-2-6z"/>
<glyph glyph-name="bell" unicode="&#106;" d="M509 247l-27 27c0 1-1 1-3 1-80 26-116 38-144 57-30 20-63 29-94 27-9 0-18-2-25-4l-118 138c-8 12-22 17-36 18-17 1-33-5-45-17-11-11-18-27-17-44 1-15 7-28 17-37l140-118c-10-34-2-79 20-112 19-29 31-59 60-149 0-2 1-3 2-4l27-27c1-2 3-2 6-2 2 0 4 0 7 2 23 14 45 29 64 45 16-14 36-22 57-22 47 0 85 38 85 86 0 20-8 40-21 56 30 38 46 65 47 67 2 4 1 9-2 12z m-490 203c-1 12 4 23 12 31 7 8 18 11 28 11 0 0 1 0 2 0 10-1 17-4 23-10l113-135c-14-7-25-19-32-33l-135 114c-7 4-11 13-11 22z m447-338c0-37-29-67-66-67-16 0-30 5-41 15 8 7 17 14 25 22 27 24 50 49 68 71 10-12 14-26 14-41z m-19 65l-4-3c-31-39-66-75-105-106l-6-5c-18-14-37-28-58-41l-20 20c-29 91-42 121-62 151-19 28-26 68-18 96 1 1 1 2 1 2 1 1 2 2 2 3 6 15 14 26 25 34 11 6 24 10 39 11 27 3 56-6 82-24 29-20 66-32 146-58l20-20c-6-10-20-32-42-60z m-219 243c2-4 6-7 10-7 1 0 2 0 2 1 6 1 8 7 7 12l-20 64c-1 6-7 9-12 7-6-1-8-7-7-11z m119-40c2 0 4 1 6 3l53 44c4 3 5 9 1 13-3 4-9 5-13 1l-53-44c-4-3-5-9-1-13 2-3 5-4 7-4z m-58 17c1 0 2 0 3 0 5 0 8 3 10 7l13 46c2 4-1 10-8 11-4 1-9-2-11-7l-13-45c-1-5 2-10 6-12z m-159-229c-4 3-10 2-13-3l-36-58c-3-5-2-10 3-13 1-1 3-1 5-1 3 0 6 2 8 4l36 58c3 4 2 10-3 13z m-53 87c5 0 9 3 10 8 1 5-3 10-8 11l-68 9c-5 1-10-3-11-8-1-4 3-9 8-10l67-10c1 0 1 0 2 0z m33-39c-2 5-8 7-13 5l-43-20c-4-2-6-7-4-12 2-4 4-6 8-6 1 0 3 0 4 1l43 20c5 2 6 8 5 12z m123-7c-4 4-7 7-15 21-7 16-13 45-5 57 3 4 2 10-2 13-3 3-10 2-13-2-17-24 1-70 3-76l0-1c8-15 14-21 19-25 5-4 8-8 14-21 2-4 5-6 9-6 1 0 3 0 4 1 4 2 6 7 4 12-7 16-13 22-18 27z"/>
<glyph glyph-name="biology" unicode="&#107;" d="M368 56l-5 0-24 53c9 5 16 12 23 19 32 32 50 74 50 119 0 37-12 72-34 102l7 13c0 1 0 3 0 4 0 1-1 3-3 3l-30 15 11 21c1 3 0 6-2 7l-1 1 8 17 1 0c1 0 2-1 3-1 0 0 1 1 1 1 2 0 3 1 4 2l23 48c2 3 1 6-2 8l-48 23c-1 1-3 1-4 1-1-1-2-2-3-3l-24-48c-1-2 0-6 2-7l1 0-8-18-1 0c-2 1-3 1-4 1-2-1-3-2-4-3l-50-101-25 13c-2 1-3 1-5 0-1 0-2-1-3-2l-10-21c-1-3 0-6 2-7l11-6-14-27c-1-3 0-6 3-7l14-7c1-1 2-1 2-1 1 0 2 0 2 0 1 1 3 2 3 3l14 27 5-2-17-35c-1-2-1-3 0-4 0-2 1-3 2-4l15-7c0 0 1 0 2 0 2 0 4 1 5 3l17 35 15-7c0-1 1-1 2-1 1 0 1 0 2 0 1 1 2 2 3 3l0 1 30-15c1 0 2 0 3 0 0 0 1 0 1 0 2 0 3 1 4 3l13 26c4 0 7 2 11 3 6-15 10-32 10-50 0-36-16-70-41-94-8 1-14 6-17 12-4 7-4 15-1 22 1 3 0 6-2 8l-17 8 0 0c1 3 0 6-3 7l-131 66c-2 1-5 0-7-3l-10-20c-1-1-1-3 0-4 0-2 1-3 2-3l134-67-15-31-21 11 1 2c0 1 0 3 0 4-1 1-1 3-3 3l-59 30c-1 0-2 0-4 0-1-1-2-2-3-3l-14-28c0-1-1-3 0-4 0-1 1-2 3-3l58-30c1 0 2 0 3 0 2 0 4 1 5 3l1 2 21-11-19-38c-1-1-1-3 0-5 1-2 2-3 4-3 2 0 4 0 6 0 0 0 0 0 0 0 4 0 8 1 13 1l-17-23-134 0c-3 0-5-2-5-5l0-46c0-1 1-2 2-3 1-1 2-2 3-2l263 0c3 0 6 2 6 5l0 46c0 1-1 3-2 4-1 1-2 1-4 1z m-26 250c-7 4-10 13-6 20 2 6 8 9 13 9 2 0 5-1 7-2 7-4 10-13 6-20-3-7-12-10-20-7z m8 193l38-19-4-10-39 19z m-10-19l39-19-10-19-38 19z m-8-31l27-14-9-17-27 13z m-65-116l23-11c1-1 1-1 2-1 2 0 4 1 5 3 1 3 0 6-2 7l-23 12 1 3 16-8c0 0 1 0 2 0 2 0 4 1 5 3 1 2 0 6-3 7l-15 7 35 69 38-19-48-96-38 19z m-37 1l68-34-5-11-69 34z m-2-54l-5 3 12 23 4-3z m26-22l-5 3 15 30 5-2z m76 19l-25 13 43 85 25-13-11-21c0 1-1 1-2 2-12 6-28 1-34-12-6-13-1-28 12-34 0-1 1-1 2-1z m-54-85l-121 61 5 11 122-61z m15-13c1 1 1 3 0 4 0 1-1 2-2 3l-3 1 3 7 13-7c-3-9-2-19 2-27 4-7 10-12 17-15-17-13-37-22-60-25z m-69-37l-49 25 3 6 21-10c1-1 2-1 2-1 2 0 4 1 5 3 2 3 1 6-2 7l-21 11 1 3 50-25z m35-8l-22 11 3 4 21-10z m-1-26c71 7 127 67 127 139 0 21-5 40-13 58 1 1 1 2 2 3 4 9 3 18-1 26l2 4c18-26 28-58 28-91 0-42-16-82-46-112-29-29-68-45-109-46z m15-27c21 3 41 11 59 22l7-14-9 0c-3 0-6-3-6-6 0-3 3-5 6-5l13 0 3-6-41 0c-3 0-6-2-6-5 0-3 3-5 6-5l46 0 2-6-99 0z m-160-70l0 4 25 0c3 0 5 3 5 6 0 3-2 5-5 5l-25 0 0 4 49 0c3 0 6 3 6 6 0 2-3 5-6 5l-49 0 0 5 252 0 0-20-11 0c-3 0-5-2-5-5 0-3 2-6 5-6l11 0 0-4z m238 314c-1 0-3-1-4-2-1-1-1-2-1-3 0-2 0-3 1-4 1-1 3-2 4-2 1 0 3 1 4 2 1 1 1 2 1 4 0 1 0 2-1 3-1 1-3 2-4 2z m-12-299c-2 0-3 0-4-1-1-1-2-3-2-4 0-2 1-3 2-4 1-1 2-2 4-2 1 0 2 1 3 2 1 1 2 2 2 4 0 1-1 3-2 4-1 1-2 1-3 1z"/>
<glyph glyph-name="board" unicode="&#108;" d="M411 479c-1 3-3 6-6 6l-245 0c-1 0-3-1-4-2-1-1-2-3-1-4l21-286c1-3 3-6 6-6l12 0 1-19c0-3 3-5 6-5l217 0c6 0 12 3 16 7 4 5 7 11 6 17l0 7c-1 3-3 5-6 5l-2 0z m-244-6l232 0 21-274-232 0z m39-298l-1 12 19 0 0-1c1-3 0-6-3-8-2-2-4-3-7-3z m220 3c-2-2-5-3-8-3l-185 0c2 4 3 8 3 12l192 0 0-1c1-3 0-6-2-8z m-21 29c2 0 4 1 5 2 1 1 1 3 1 4l-19 247c0 3-2 5-5 5l-205 0c-2 0-4-1-5-2-1-1-1-3-1-4l19-247c0-3 2-5 5-5z m-217 246l193 0 18-234-193 0z m248 54c0 3-3 5-6 5l-348 0c-3 0-6-2-6-5l-38-501c0-1 0-3 2-4 1-1 2-2 4-2l46 0c3 0 6 2 6 5l9 120 30 0 9-120c1-3 3-5 6-5l46 0c2 0 4 1 5 2 1 1 1 3 1 4l-9 119 126 0-9-119c0-1 0-3 1-4 1-1 3-2 5-2l46 0c3 0 5 2 6 5l9 120 30 0 9-120c0-3 3-5 6-5l46 0c2 0 3 1 4 2 2 1 2 3 2 4z m-349-7l8 0-37-488-8 0z m13-363c-3 0-6-3-6-6l-9-119-16 0 38 488 0 0 27-363z m18 363l8 0 37-488-7 0z m211-488l-7 0 8 113 8 0z m27 0l-15 0 9 113 15 0z m63 113l7 0 9-113-8 0z m27-113l-9 119c0 3-2 6-6 6l-244 0c-2 0-3-1-4-2-1-1-2-3-2-5l9-118-15 0-38 488 288 0 37-488z m-340 275c-3 0-6-2-6-5l-10-125c0-3 2-6 5-6 1 0 1 0 1 0 3 0 5 2 6 5l9 125c0 3-2 6-5 6z m10-136c1 0 1 0 1 0 3 0 6 2 6 5l2 35c1 3-2 6-5 6-3 0-6-2-6-5l-3-35c0-3 2-6 5-6z m164 281l89 0c4 0 6 2 6 6 0 3-2 5-6 5l-89 0c-3 0-5-2-5-5 0-4 2-6 5-6z m-62-206l59 0c3 0 6 3 6 6 0 3-3 6-6 6l-59 0c-4 0-6-3-6-6 0-3 2-6 6-6z m88 12l-13 0c-3 0-5-3-5-6 0-3 2-6 5-6l13 0c4 0 6 3 6 6 0 3-2 6-6 6z m63 185l-31 0c-3 0-6-3-6-6 0-3 3-6 6-6l31 0c4 0 6 3 6 6 0 3-2 6-6 6z"/>
<glyph glyph-name="book" unicode="&#109;" d="M137 171l238 0c6 0 9 3 9 8l0 137c0 5-3 8-9 8l-238 0c-6 0-9-3-9-8l0-137c0-5 3-8 9-8z m8 136l222 0 0-119-222 0z m68-51l86 0c5 0 8 3 8 9 0 5-3 8-8 8l-86 0c-5 0-8-3-8-8 0-6 3-9 8-9z m111-17l-136 0c-5 0-9-3-9-9 0-5 4-8 9-8l136 0c5 0 9 3 9 8 0 6-4 9-9 9z m120 273l-342 0c-23 0-42-19-42-43l0-426c0-24 19-43 42-43l342 0c5 0 8 3 8 9l0 494c0 6-3 9-8 9z m-239-17l0-85-21 15c-1 1-3 2-5 2-2 0-3-1-5-2l-20-15 0 85z m-103 0l35 0 0-102c0-4 1-6 5-8 2-2 6-1 8 1l29 21 29-21c2-1 4-2 5-2 2 0 3 0 4 1 3 2 5 4 5 8l0 102 213 0 0-410-333 0c0 0-1 0-1 0-9 0-18-3-24-8l0 392c0 15 11 26 25 26z m333-478l-333 0c-14 0-25 11-25 26 0 14 11 25 25 25l333 0z m-324 17l290 0c5 0 9 4 9 9 0 5-4 8-9 8l-290 0c-5 0-9-3-9-8 0-5 4-9 9-9z"/>
<glyph glyph-name="book-1" unicode="&#110;" d="M444 512l-342 0c-23 0-42-19-42-43l0-426c0-24 19-43 42-43l342 0c5 0 8 3 8 9l0 494c0 6-3 9-8 9z m-9-427l-273 0 0 410 273 0z m-333 410l43 0 0-410-43 0c0 0-1 0-1 0-9 0-18-3-24-8l0 392c0 15 11 26 25 26z m333-478l-333 0c-14 0-25 11-25 26 0 14 11 25 25 25l333 0z m-333 26c0-5 4-9 9-9l299 0c5 0 8 4 8 9 0 5-3 8-8 8l-299 0c-5 0-9-3-9-8z m197 332c-35 0-67-32-69-68 0-17 6-33 16-45 12-15 19-32 19-49l0-42c0-19 15-34 34-34 18 0 34 15 34 34l0 38c0 1 1 3 1 4 0 17 6 34 17 47 11 12 17 28 17 45 0 19-9 38-22 52-13 12-30 18-47 18z m17-187l-34 0 0 17 34 0z m-17-34c-10 0-17 7-17 17l34 0c0-10-8-17-17-17z m38 117c-12-14-20-31-21-49l-35 0c-2 18-10 35-22 51-8 9-12 21-12 34 1 28 25 51 52 52 12 0 24-5 34-14 11-10 17-26 17-40 0-12-5-24-13-34z m-38 122c5 0 8 3 8 8l0 51c0 5-3 9-8 9-5 0-9-4-9-9l0-51c0-5 4-8 9-8z m37-7c2-1 4-2 5-2 3 0 5 1 7 3l26 35c2 3 1 9-2 11-3 3-9 2-12-1l-25-34c-3-4-2-10 1-12z m-112 36l25-35c2-2 4-3 7-3 2 0 3 1 5 2 4 2 4 8 2 12l-26 34c-2 3-8 4-12 1-3-2-4-8-1-11z"/>
<glyph glyph-name="book-2" unicode="&#111;" d="M230 324l205 0c5 0 9 4 9 9l0 136c0 5-4 9-9 9l-205 0c-5 0-8-4-8-9l0-136c0-5 3-9 8-9z m9 137l188 0 0-120-188 0z m68-51l51 0c6 0 9 3 9 8 0 5-3 9-9 9l-51 0c-5 0-8-4-8-9 0-5 3-8 8-8z m77-17l-102 0c-6 0-9-4-9-9 0-5 3-9 9-9l102 0c5 0 9 4 9 9 0 5-4 9-9 9z m-179-359l256 0c5 0 8 4 8 9 0 5-3 8-8 8l-256 0c-5 0-9-3-9-8 0-5 4-9 9-9z m298 478l-307 0c-24 0-42-19-42-43l0-184c-9-3-16-5-23-7-12-3-24-9-35-18-4-3-9-7-14-9-14-8-25-20-30-35 0-2-1-4-2-6l-44-15c-3 0-6-4-6-7l0-94c0-5 3-9 9-9l11 0c21 0 56-6 76-12 12-3 23-5 34-5l24 0 0-25c0-24 18-43 42-43l307 0c6 0 9 3 9 9l0 494c0 6-3 9-9 9z m-332-43c0 15 11 26 25 26l299 0 0-410-299 0c0 0-1 0-2 0-9 0-17-3-23-8l0 100c0 2 0 4 0 6 1 3 1 6 2 8 1 2 2 5 4 7 1 2 2 4 3 5 1 0 1 1 1 1 5 5 11 9 18 11l42 13c6 2 12 5 17 9 6 4 10 9 14 15 2 2 3 5 4 7 0 2 1 4 1 5 0 2 1 4 1 6 0 0 0 1 0 2 0 7-2 14-7 20 0 0 0 0 0 0 0 1-1 1-1 2 0 0-1 1-1 1 0 0 0 0 0 1-4 3-7 6-12 8 0 1-1 2-3 2-7 3-14 3-21 1-12-3-26-7-39-10-1 0-2-1-3-1-6-2-13-4-20-6z m76-183c0-6-8-13-21-13-9 0-17 4-19 9 0 0 1 0 2 0 11 3 21 6 29 8 1 0 2 0 3 1 2 0 4-1 6-1 0-2 0-3 0-4z m-118-201c-10 0-19 2-28 5-22 6-57 12-81 12l-3 0 0 80 39 13c8 2 10 7 12 16 4 11 11 19 22 25 6 3 12 6 17 11 9 6 18 12 30 15 13 4 33 10 52 15 5-12 20-21 37-21 16 0 29 7 35 17 0-3-1-7-3-11-5-9-13-15-22-17l-42-13c-24-8-40-30-40-55l0-92z m366-68l-299 0c-14 0-25 11-25 26 0 14 11 25 25 25l299 0z"/>
<glyph glyph-name="book-3" unicode="&#112;" d="M505 253c-13 17-40 12-55 2l-76-50-116 0c-2 1-3 5-3 7 0 4 2 8 5 11l51 17c16 7 29 29 22 47-3 6-8 11-15 14-10 3-22 3-31-1l-78-27-94-8c-7 0-19-7-23-10l-60-25c-27-12-39-44-27-71l40-98c1-2 3-4 5-5 2-1 3-1 4-1 1 0 2 0 3 1l103 52 155 0c1 0 2 0 3 1l105 35c1 0 2 0 2 1l70 53c9 6 15 17 17 28 1 11-1 20-7 27z m-11-25c-1-7-4-14-9-17l-69-52-102-34-156 0c-1 0-2 0-4 0l-96-48-37 89c-8 18 0 39 19 48l61 26c1 0 1 0 1 1 4 3 11 7 14 7l96 9c0 0 0 0 1 0l80 26c3 1 7 2 10 2 3 0 5 0 8-1 3-1 4-3 5-4 3-7-4-21-12-24l-52-17c-1-1-2-1-3-2-8-6-12-16-12-26 1-10 5-18 13-23 1-1 3-2 4-2l123 0c1 0 3 1 3 2l79 52c9 6 27 9 32 2 3-3 4-9 3-14z m-432 107l402 0c5 0 9 3 9 8l0 105c0 5-4 9-9 9l-402 0c-5 0-8-4-8-9l0-105c0-5 3-8 8-8z m96 17l0 87 210 0 0-87z m297 0l-35 0 0 87 35 0z m-52 87l0-87-18 0 0 87z m-262 0l0-87-18 0 0 87z m-70 0l35 0 0-87-35 0z m253-35l-122 0c-5 0-9-3-9-8 0-6 4-9 9-9l122 0c5 0 9 3 9 9 0 5-4 8-9 8z"/>
<glyph glyph-name="book-4" unicode="&#113;" d="M443 130c1 1 2 1 2 2 6 1 11 6 11 13l0 349c0 9-8 18-19 18l-294 0c-48 0-87-39-87-87l0-356 0 0c0-13 4-26 12-38 13-20 34-31 58-31l320 0c4 0 8 3 9 8 1 4-1 8-5 10-8 5-24 25-24 51 0 32 11 57 17 61z m-369 295c0 38 31 70 69 70l294 0c1 0 1-1 1-1l0-346-303 0c-27 0-47-13-61-30z m52-408c-18 0-34 9-44 24-9 15-11 34-3 51 10 23 33 38 60 38l283 0c-4-7-7-16-9-26-1 0-1 0-1 0l-104 0c-5 0-9-3-9-9 0-5 4-8 9-8l102 0c-1-6-1-12-1-18 0-3 0-5 0-8l-75 0c-5 0-9-4-9-9 0-5 4-9 9-9l78 0c0 0 0 0 1 0 3-10 8-19 13-26z m29 295l202 0c16 0 29 13 29 30l0 61c0 17-14 31-31 31l-198 0c-17 0-31-14-31-31l0-61c0-17 13-30 29-30z m-12 91c0 7 6 14 14 14l198 0c8 0 14-7 14-14l0-61c0-7-5-12-12-12l-202 0c-7 0-12 5-12 12z m78-21l78 0c6 0 9 3 9 9 0 5-3 8-9 8l-78 0c-5 0-8-3-8-8 0-6 3-9 8-9z m-34-35l138 0c6 0 9 4 9 9 0 5-3 8-9 8l-138 0c-6 0-9-3-9-8 0-5 3-9 9-9z"/>
<glyph glyph-name="book-5" unicode="&#114;" d="M105 294c3-2 8-4 12-4 2 0 3 0 4 0l226 48c9 2 16 9 16 19l0 80c0 6-3 11-7 14-4 5-10 6-16 5l-227-47c-8-2-15-10-15-19l0-80c0-6 3-12 7-16z m10 96c0 1 1 2 2 2l226 47c1 0 2 0 2 0 0 0 1-1 1-2l0-81c0-1-1-2-2-2l-226-47c-1 0-2 1-2 1 0 0-1 1-1 2z m282 71l0 25c0 12-9 26-22 26l-291-60c-11-2-20-13-20-24l0-385c0-24 19-43 43-43l341 0 0 461z m-310-26l288 60c2-1 5-4 4-9l0-346c0-3-2-5-4-5l-269-41c-5 0-9-1-14-2-4-2-8-4-11-6l0 342c0 4 3 6 6 7z m344-418l-324 0c-15 0-26 11-26 26l0 8c0 15 11 26 26 26l324 0z m-211 77l158 24c11 1 19 11 19 22l0 304 34 0 0-350z"/>
<glyph glyph-name="book-6" unicode="&#115;" d="M124 62l-45 0c-5 0-8-4-8-9 0-5 3-9 8-9l45 0c5 0 8 4 8 9 0 5-3 9-8 9z m256 0l-221 0c-5 0-9-4-9-9 0-5 4-9 9-9l221 0c5 0 8 4 8 9 0 5-3 9-8 9z m59 450l-369 0c-19 0-35-16-35-34l0-425c0-29 24-53 53-53l368 0c11 0 21 10 21 21l0 453c0 21-17 38-38 38z m-24-18l0-388-309 0 0 388z m-362-16c0 8 8 16 17 16l18 0 0-388c-13 0-25-4-35-13z m0-425c0 19 16 35 35 35l327 0 0-70-327 0c-19 0-35 16-35 35z m406-32c0-2-2-3-3-3l-23 0 0 70 26 0z m-26 85l0 388 6 0c11 0 20-8 20-20l0-368-26 0z m-245 238l136 0c11 0 20 9 20 21l0 65c0 11-9 20-21 20l-135 0c-11 0-20-9-20-20l0-65c0-12 9-21 20-21z m-3 86c0 1 1 3 3 3l136 0c2 0 3-2 2-3l0-65c0-1-1-2-3-2l-135 0c-2 0-3 1-3 2z m18-227c-5 0-9-3-9-9 0-5 4-9 9-9l106 0c5 0 9 4 9 9 0 6-4 9-9 9z m-35-53l176 0c6 0 9 4 9 9 0 5-3 9-9 9l-176 0c-6 0-9-4-9-9 0-5 3-9 9-9z"/>
<glyph glyph-name="bookshelf" unicode="&#116;" d="M507 126l-20 0 0 43 15 0c3 0 5 2 5 5l0 54c0 3-2 5-5 5l-5 0c7 17 6 35-4 51 0 1-2 2-3 3-1 0-1 0-1 0l-167 0c-3 0-5-3-5-6 0-3 2-5 5-5l5 0c7-14 7-29 0-43l-5 0c-3 0-5-2-5-5 0-3 2-6 5-6l8 0 0-43-15 0c-3 0-6-2-6-5l0-48-13 0 0 308c0 3-3 5-6 5l-62 0c-3 0-5-2-5-5l0-308-11 0 0 218c0 3-2 6-5 6l-73 0c-3 0-5-3-5-6l0-218-10 0 0 308c0 3-2 5-5 5l-89 0c-3 0-5-2-5-5l0-308-15 0c-3 0-5-3-5-6l0-42c0-3 2-5 5-5l502 0c3 0 5 2 5 5l0 42c0 3-2 6-5 6z m-31 17l-156 0 0 8 156 0z m-8 79l0-43-100 0 0 43z m28-43l-17 0 0 43 17 0z m-157 54c1 3 2 5 2 8l148 0c-1-3-2-5-4-8z m4 24l147 0c1-2 1-3 0-5l-147 0c0 2 0 3 0 5z m142 19c2-3 3-5 4-8l-148 0c0 3-1 5-2 8z m-145-54l17 0 0-43-17 0z m136-53l0-7-156 0 0 7z m-156-37l156 0 0-6-156 0z m-56 220l21 0 0-226-21 0z m21 31l-21 0 0 10 21 0z m-31 0l-21 0 0 10 21 0z m0-10l0-10-21 0 0 10z m10 0l21 0 0-10-21 0z m21 31l-21 0 0 25 21 0z m-31 25l0-25-21 0 0 25z m-21-77l21 0 0-226-21 0z m-31-47l-62 0 0 5 62 0z m0-11l0-124-62 0 0 124z m0-135l0-5-62 0 0 5z m0 180l0-18-62 0 0 18z m-62-195l62 0 0-18-62 0z m-31 7l-79 0 0 252 79 0z m0 278l0-15-79 0 0 15z m-79-288l79 0 0-15-79 0z m471-58l-490 0 0 32 490 0z m-454 293l45 0c3 0 6 3 6 6 0 3-3 5-6 5l-45 0c-3 0-6-2-6-5 0-3 3-6 6-6z m0-17l45 0c3 0 6 2 6 5 0 3-3 5-6 5l-45 0c-3 0-6-2-6-5 0-3 3-5 6-5z m45-185l-45 0c-3 0-6-3-6-6 0-3 3-5 6-5l45 0c3 0 6 2 6 5 0 3-3 6-6 6z m69 9c3 0 5 3 5 6l0 87c0 3-2 5-5 5-3 0-6-2-6-5l0-87c0-3 3-6 6-6z m20 0c2 0 5 3 5 6l0 87c0 3-3 5-5 5-3 0-6-2-6-5l0-87c0-3 3-6 6-6z m207 3l61 0c3 0 5 2 5 5l0 19c0 3-2 6-5 6l-61 0c-3 0-5-3-5-6l0-19c0-3 2-5 5-5z m5 19l50 0 0-8-50 0z"/>
<glyph glyph-name="briefcase" unicode="&#117;" d="M461 367l-104 0-13 64c-3 13-13 21-26 21l-124 0c-13 0-23-8-26-21l-13-64-104 0c-28 0-51-23-51-51l0-205c0-28 23-51 51-51l410 0c28 0 51 23 51 51l0 205c0 28-23 51-51 51z m-277 61c1 4 5 7 10 7l124 0c5 0 9-3 10-7l12-61-17 0-5 29c-1 13-13 22-25 22l-73 0c-13 0-24-9-26-21l-5-30-17 0z m121-61l-98 0 3 26c1 5 5 8 9 8l73 0c5 0 8-3 9-8z m190-256c0-19-15-34-34-34l-410 0c-19 0-34 15-34 34l0 205c0 19 15 34 34 34l410 0c19 0 34-15 34-34z m-85 213l-308 0c-28 0-51-23-51-51l0-162c0-5 4-9 9-9 5 0 8 4 8 9l0 162c0 19 16 34 34 34l308 0c18 0 34-15 34-34l0-171c0-5 3-8 8-8 5 0 9 3 9 8l0 171c0 28-23 51-51 51z m-60-59c-5 0-9-4-9-9l0-116-16-24c-2-4-2-9 3-12 1-1 3-2 5-2 2 0 5 2 7 5l15 22c2 2 3 4 3 8l0 119c0 5-3 9-8 9z m-82-8l-125 0c-18 0-32-15-32-32l0-57c0-18 14-31 32-31l124 0c18 0 32 13 33 31l0 57c0 18-15 32-32 32z m14-90c0-7-6-14-14-14l-125 0c-8 0-15 7-15 14l0 57c0 8 7 15 15 15l125 0c8 0 14-7 14-15z"/>
<glyph glyph-name="calculator" unicode="&#118;" d="M398 512l-284 0c-20 0-37-17-37-38l0-436c0-21 17-38 37-38l284 0c20 0 37 17 37 38l0 436c0 21-17 38-37 38z m20-474c0-12-9-21-20-21l-284 0c-11 0-20 9-20 21l0 436c0 12 9 21 20 21l284 0c11 0 20-9 20-21z m-25 440l-274 0c-5 0-8-4-8-9l0-85c0-5 3-9 8-9l274 0c5 0 8 4 8 9l0 85c0 5-3 9-8 9z m-9-85l-256 0 0 68 256 0z m-119-308l-137 0c-5 0-9-3-9-8l0-34c0-5 4-9 9-9l137 0c5 0 8 4 8 9l0 34c0 5-3 8-8 8z m-9-34l-119 0 0 17 119 0z m-137 60c0-5 4-9 9-9l51 0c5 0 9 4 9 9l0 34c0 5-4 9-9 9l-51 0c-5 0-9-4-9-9z m18 26l34 0 0-18-34 0z m136 17l-51 0c-5 0-9-4-9-9l0-34c0-5 4-9 9-9l51 0c5 0 9 4 9 9l0 34c0 5-4 9-9 9z m-8-35l-35 0 0 18 35 0z m102 35l-51 0c-5 0-9-4-9-9l0-34c0-5 4-9 9-9l51 0c5 0 8 4 8 9l0 34c0 5-3 9-8 9z m-9-35l-34 0 0 18 34 0z m9-34l-51 0c-5 0-9-3-9-8l0-34c0-5 4-9 9-9l51 0c5 0 8 4 8 9l0 34c0 5-3 8-8 8z m-9-34l-34 0 0 17 34 0z m9 171l-51 0c-5 0-9-4-9-9l0-34c0-5 4-8 9-8l51 0c5 0 8 3 8 8l0 34c0 5-3 9-8 9z m-9-34l-34 0 0 17 34 0z m-85 34l-51 0c-5 0-9-4-9-9l0-34c0-5 4-8 9-8l51 0c5 0 9 3 9 8l0 34c0 5-4 9-9 9z m-8-34l-35 0 0 17 35 0z m-146-9c0-5 4-8 9-8l51 0c5 0 9 3 9 8l0 34c0 5-4 9-9 9l-51 0c-5 0-9-4-9-9z m18 26l34 0 0-17-34 0z m-18 42c0-5 4-8 9-8l51 0c5 0 9 3 9 8l0 35c0 5-4 8-9 8l-51 0c-5 0-9-3-9-8z m18 26l34 0 0-17-34 0z m136 17l-51 0c-5 0-9-3-9-8l0-35c0-5 4-8 9-8l51 0c5 0 9 3 9 8l0 35c0 5-4 8-9 8z m-8-34l-35 0 0 17 35 0z m102 34l-51 0c-5 0-9-3-9-8l0-35c0-5 4-8 9-8l51 0c5 0 8 3 8 8l0 35c0 5-3 8-8 8z m-9-34l-34 0 0 17 34 0z m9 102l-51 0c-5 0-9-3-9-8l0-34c0-5 4-9 9-9l51 0c5 0 8 4 8 9l0 34c0 5-3 8-8 8z m-9-34l-34 0 0 17 34 0z m-85 34l-51 0c-5 0-9-3-9-8l0-34c0-5 4-9 9-9l51 0c5 0 9 4 9 9l0 34c0 5-4 8-9 8z m-8-34l-35 0 0 17 35 0z m-137-17l51 0c5 0 9 4 9 9l0 34c0 5-4 8-9 8l-51 0c-5 0-9-3-9-8l0-34c0-5 4-9 9-9z m9 34l34 0 0-17-34 0z m34 77l17 0c5 0 8 4 8 9 0 5-3 8-8 8l-17 0c-5 0-9-3-9-8 0-5 4-9 9-9z m153 0l17 0c5 0 9 4 9 9 0 5-4 8-9 8l-17 0c-5 0-8-3-8-8 0-5 3-9 8-9z m-102 0l17 0c5 0 8 4 8 9 0 5-3 8-8 8l-17 0c-5 0-9-3-9-8 0-5 4-9 9-9z m51 0l17 0c5 0 9 4 9 9 0 5-4 8-9 8l-17 0c-5 0-8-3-8-8 0-5 3-9 8-9z"/>
<glyph glyph-name="canvas" unicode="&#119;" d="M401 388c19 0 34 16 34 34 0 10-4 19-12 26-3 3-8 3-12-1-2-3-2-8 1-12 4-3 6-7 6-13 0-9-8-17-17-17-4 0-8 2-12 5-3 2-8 2-12-1-2-4-2-9 1-12 7-5 15-9 23-9z m-307 9l8 17 17 8-17 9-8 17-9-17-17-9 17-8z m196-43l9 17 17 9-17 8-9 17-8-17-17-8 17-9z m60-188l162 0 0 52-512 0 0-52 162 0 0-34 15 0-14-37c-2-3-1-7 1-10 2-2 5-4 8-4l2 0-20-66c-1-5 1-9 6-11 0 0 1 0 2 0 4 0 7 3 9 6l22 71 9 0c5 0 8 3 10 6l17 45 47 0 16-44c2-4 5-7 9-7l10 0 22-71c2-3 5-6 8-6 1 0 2 0 3 0 5 2 8 7 6 11l-21 66 2 0c4 0 7 2 9 5 2 3 2 6 1 10l-13 36 22 0z m-333 17l0 18 478 0 0-18z m180-85l-8 0c-2 0-3 0-4 0l-4 0 13 34 16 0z m126 0l-3 0c-1 1-3 1-5 0l-9 0-12 34 16 0z m10 51l-154 0 0 17 154 0z m136 137l0 196-162 0 0 9 26 0c5 0 8 3 8 8 0 5-3 9-8 9l-154 0c-5 0-8-4-8-9 0-5 3-8 8-8l26 0 0-9-162 0 0-256 426 0 0 60z m-247 205l68 0 0-26-68 0z m-162-26l145 0 0-17 102 0 0 17 145 0 0-179-38 0-47 76-47-76-50 0-57 93-26-42-42 67-73-118-12 0z m334-179l-54 0 27 43z m-196 0l-106 0 53 86 32-52 0 0z m0 32l-1 2 16 26 38-60-33 0z m254-75l-392 0 0 26 392 0z"/>
<glyph glyph-name="cell" unicode="&#120;" d="M437 437c-48 48-113 75-181 75-62 0-122-23-169-63-3-3-3-9 0-12 3-3 8-4 11-1 44 39 100 60 158 60 132 0 240-108 240-240 0-132-108-240-240-240-132 0-240 108-240 240 0 58 21 114 60 158 3 3 2 8-1 11-3 3-9 3-12 0-40-47-63-107-63-169 0-68 27-133 75-181 48-48 113-75 181-75 68 0 133 27 181 75 48 48 75 113 75 181 0 68-27 133-75 181z m-104-246c-3 3-8 3-12 0-3-4-7-8-12-11l-8 14c19 14 31 37 31 62 0 42-34 76-76 76-29 0-54-16-67-40l-15 7c4 8 10 16 17 22 3 4 3 9 0 12-4 3-9 3-12 0-21-21-32-48-32-77 0-5 4-8 8-8 5 0 8 3 8 8 0 9 2 19 5 27l15-6c-2-7-3-14-3-21 0-42 34-76 76-76 11 0 21 2 31 6l8-14c-5-2-10-4-15-5-4-2-7-6-6-10 1-4 4-7 8-7 1 0 1 1 2 1 9 2 18 6 26 11 0 0 0 0 0 0 1 0 1 0 1 0 8 4 15 10 22 17 3 3 3 8-12 8z m-137 65c0 33 27 60 60 60 33 0 60-27 60-60 0-33-27-60-60-60-33 0-60 27-60 60z m123-109c-19-10-41-16-63-16-5 0-8-4-8-8 0-5 3-9 8-9 25 0 49 7 71 19 4 3 5 8 3 12-2 3-7 5-11 2z m-134 232c-43-26-71-73-71-123 0-5 4-8 9-8 4 0 8 3 8 8 0 45 24 86 62 109 4 2 6 7 3 11-2 4-7 5-11 3z m-52 0c-22-21-38-48-45-78-2-4 1-9 5-10 1 0 2 0 2 0 4 0 7 2 8 6 8 27 22 51 41 71 3 3 3 8 0 11-3 3-8 3-11 0z m281-269c3-3 9-3 11 1 35 40 54 92 54 145 0 123-100 223-223 223-123 0-223-100-223-223 0-123 100-223 223-223 53 0 105 19 145 54 4 2 4 8 1 11-3 3-8 4-11 1-38-32-86-50-135-50-114 0-207 93-207 207 0 114 93 207 207 207 114 0 207-93 207-207 0-49-18-97-50-135-3-3-3-8 1-11z m-183-18c0-4-4-8-8-8-5 0-8 4-8 8 0 5 3 8 8 8 4 0 8-3 8-8z m-19 322c0-5-3-8-8-8-4 0-8 3-8 8 0 4 4 8 8 8 5 0 8-4 8-8z m44-48c14 0 25 9 29 22 4 16-5 33-21 37-3 1-5 1-8 1-14 0-25-9-29-22-4-16 5-33 21-37 3-1 5-1 8-1z m-13 34c1 6 7 10 13 10 1 0 2 0 4-1 7-2 11-9 9-16-1-6-7-11-13-11-1 0-2 1-4 1-7 2-11 9-9 17z m-97-276c1 0 1 0 1-1 0 0 0 0 0 0 2-1 4-3 7-5 5-4 11-6 18-6 9 0 18 5 24 12 9 14 7 33-7 42-8 7-16 15-23 23-5 8-14 12-24 12-6 0-12-2-18-5-13-10-16-29-6-42 8-11 18-21 28-30z m-12 58c3 2 5 3 8 3 5 0 9-2 11-5l-2-2c-3-3-4-8-1-11 1-2 4-4 6-4 2 0 4 1 5 2l3 2c5-5 10-10 16-14 6-4 7-13 2-19-2-3-6-5-10-5-3 0-6 1-9 2l2 3c3 3 2 9-2 11-3 3-8 2-11-1l-1-2c-7 6-14 14-20 21-4 6-3 15 3 19z m240-10c4-1 8-2 12-2 12 0 23 7 27 18 2 2 3 5 3 7 1 0 1 1 1 1 0 0 0 0 0 0 5 13 8 27 9 40 1 7 0 13-3 19-5 8-13 13-23 14-1 1-2 1-3 1-16 0-28-12-30-27-1-11-4-21-9-31-3-8-3-16 0-23 3-8 9-14 16-17z m23 81c0 0 1 0 1 0 5 0 8-3 10-7 2-2 3-5 2-8-1-10-3-19-6-28l-2 1c-4 1-9-1-10-5-2-4 0-9 4-10l2-2c-2-5-7-8-12-8-2 0-4 1-5 1-4 2-6 4-8 8-1 3-1 7 0 10 3 7 5 13 7 20l4 0c0 0 0 0 1 0 4 0 7 3 8 7 0 4-3 8-7 9l-3 0c1 7 7 12 14 12z m-27 58c6 0 12 2 18 5 6 5 10 12 11 20 1 8-1 16-5 22-8 11-18 21-28 30-1 0-1 0-1 1 0 0 0 0 0 0-2 1-4 3-7 5-5 4-11 6-17 6-10 0-19-5-25-12-9-14-7-33 7-42 8-7 16-15 23-23 5-8 14-12 24-12z m-38 48c-6 4-7 13-2 19 2 3 6 5 11 5 2 0 5-1 8-2 0 0-2-3-2-3-3-3-2-9 2-11 1-1 3-2 4-2 3 0 5 1 7 3l1 2c7-6 14-14 20-21 2-3 3-7 2-10 0-4-2-7-5-9-3-2-5-3-8-3-5 0-9 2-11 5l2 2c3 3 4 8 1 11-2 4-7 5-11 2l-3-2c-5 5-10 10-16 14z"/>
<glyph glyph-name="certificate" unicode="&#121;" d="M506 446l-500 0c-3 0-6-3-6-6l0-347c0-3 3-5 6-5l299 0 3-17c0-2 2-4 4-4 0-1 1-1 2-1 1 0 3 1 4 2l19 20 62 0 19-20c1-1 3-2 4-2 1 0 2 0 2 1 2 0 4 2 4 4l3 17 75 0c3 0 6 2 6 5l0 347c0 3-3 6-6 6z m-43-333l-6 6 15 0 20-20-55 0 23 4c2 0 4 2 5 4 0 2 0 4-2 6z m-89 16c-2-2-4-4-6-4-2 0-4 2-6 4-3 1-5 3-8 4-3 1-6 1-9 1-3 0-5 0-7 1-1 1-2 4-3 6-1 3-2 6-4 8-1 3-4 5-6 6-2 2-4 4-5 5 0 2 0 4 1 7 1 3 2 6 2 9 0 3-1 6-2 9-1 2-1 5-1 6 1 2 3 4 5 5 2 2 5 4 6 6 2 3 3 6 4 9 1 2 2 5 3 6 2 1 4 1 7 1 3 0 6 0 9 1 3 1 5 3 8 4 2 2 4 3 6 3 2 0 4-1 6-3 3-1 5-3 8-4 3-1 6-1 9-1 3 0 5 0 7-1 1-1 2-4 3-6 1-3 2-6 4-9 1-2 4-4 6-6 2-1 4-3 5-5 0-1 0-4-1-6-1-3-2-6-2-9 0-3 1-6 2-9 1-3 1-5 1-7-1-1-3-3-5-5-2-1-5-3-6-6-2-2-3-5-4-8-1-2-2-5-3-6-2-1-4-1-7-1-3 0-6 0-9-1-3-1-5-3-8-4z m52 41c0 2-1 4-1 6 0 1 1 4 1 6 1 4 3 8 1 13-1 5-5 8-9 11-1 1-3 2-4 3-1 2-1 4-2 6-2 4-3 8-7 11-5 3-9 3-14 4-2 0-4 0-5 0-2 1-3 2-5 3-4 2-8 5-13 5-5 0-9-3-13-5-2-1-3-2-5-3-1 0-3 0-5 0-5-1-9-1-14-4-4-3-5-7-7-11-1-2-1-4-2-6-1-1-3-2-4-3-4-3-8-6-9-11-2-5 0-9 1-13 0-2 1-5 1-6 0-2-1-4-1-6-1-4-3-9-1-13 0-2 1-4 2-5l-20-21-247 0 0 271 424 0 0-271-23 0-21 21c2 1 3 3 3 5 2 4 0 9-1 13z m-155-63c1-2 3-4 5-4l23-4-279 0 20 20 239 0-6-6c-2-2-2-4-2-6z m201 307l-432 0-20 20 472 0z m-440-8l0-278-20-20 0 318z m448-278l0 278 20 20 0-318z m-162-43l-4 20c0 2-2 4-5 5l-20 3 31 31c1-1 1-1 2-2 1-1 1-3 2-5 2-4 3-8 7-11 5-3 9-4 14-4 2 0 4 0 5 0 1-1 2-1 3-2z m31 14l15 15c1 0 3 0 4 0 1 0 3 0 4 0l15-15z m73 6l-4-20-35 35c1 1 2 1 3 2 1 0 3 0 5 0 5 0 9 1 14 4 4 3 5 7 7 11 1 2 1 4 2 5 1 1 1 1 2 2l31-31-20-3c-3-1-5-3-5-5z m-18 71c0 20-16 36-36 36-20 0-36-16-36-36 0-20 16-36 36-36 20 0 36 16 36 36z m-36-25c-14 0-24 11-24 25 0 13 10 24 24 24 13 0 24-11 24-24 0-14-11-25-24-25z m-123 207c4 0 6 3 6 6l0 21c0 3-2 6-6 6-3 0-5-3-5-6l0-21c0-3 2-6 5-6z m22 0c3 0 5 3 5 6l0 21c0 3-2 6-5 6-4 0-6-3-6-6l0-21c0-3 2-6 6-6z m22 11l39 0c3 0 6 2 6 6 0 3-3 5-6 5l-39 0c-3 0-6-2-6-5 0-4 3-6 6-6z m-105 0l39 0c3 0 6 2 6 6 0 3-3 5-6 5l-39 0c-3 0-6-2-6-5 0-4 3-6 6-6z m224-29l-304 0c-3 0-6-2-6-6 0-3 3-5 6-5l304 0c3 0 6 2 6 5 0 4-3 6-6 6z m0-24l-304 0c-3 0-6-3-6-6 0-3 3-6 6-6l304 0c3 0 6 3 6 6 0 3-3 6-6 6z m0-25l-304 0c-3 0-6-2-6-6 0-3 3-6 6-6l304 0c3 0 6 3 6 6 0 4-3 6-6 6z m0-24l-304 0c-3 0-6-3-6-6 0-4 3-6 6-6l304 0c3 0 6 2 6 6 0 3-3 6-6 6z m-164-67l-140 0c-3 0-6-3-6-6 0-3 3-6 6-6l140 0c4 0 6 3 6 6 0 3-2 6-6 6z m-53-24l-87 0c-3 0-6-2-6-6 0-3 3-6 6-6l87 0c3 0 6 3 6 6 0 4-3 6-6 6z m-134 189c-3 0-5-3-5-6l0-47c0-4 2-6 5-6 4 0 6 2 6 6l0 47c0 3-2 6-6 6z m0 27c-3 0-5-2-5-6l0-8c0-4 2-6 5-6 4 0 6 2 6 6l0 8c0 4-2 6-6 6z m399-250c3 0 6 3 6 6l0 62c0 3-3 5-6 5-4 0-6-2-6-5l0-62c0-3 2-6 6-6z m0 79c3 0 6 3 6 6l0 11c0 3-3 6-6 6-4 0-6-3-6-6l0-11c0-3 2-6 6-6z"/>
<glyph glyph-name="chemistry" unicode="&#122;" d="M189 49c0 0 0 0 1 0 42 8 72 46 72 88 0 4-3 6-6 6-3 0-6-2-6-6 0-37-26-69-63-77-3-1-5-4-4-7 0-3 3-4 6-4z m63 169c-2 2-6 2-8 0-2-2-2-6 0-8 19-20 30-45 30-73 0-56-46-102-103-102-28 0-55 12-74 33-2 2-6 2-9 0-2-2-2-6 0-8 22-23 52-37 83-37 63 0 115 52 115 114 0 31-12 60-34 81z m-21 43l0 55c10 0 18 9 18 19 0 10-9 19-19 19l-117 0c-11 0-19-9-19-19 0-10 8-19 18-19l0-55c-48-22-78-71-78-124 0-75 62-137 137-137 76 0 138 62 138 137 0 53-31 102-78 124z m-125 74c0 4 3 7 7 7l117 0c4 0 7-3 7-7 0-4-3-7-7-7l-117 0c-4 0-7 3-7 7z m65-323c-69 0-125 56-125 125 0 50 29 95 74 115 2 1 4 4 4 6l0 58 95 0 0-58c0-3 1-5 4-6 45-20 74-65 74-115 0-69-56-125-126-125z m6 462l6 0 0-112c0-3 3-6 6-6 4 0 6 3 6 6l0 112 121 0 0-23c0-4 2-6 5-6 4 0 6 2 6 6l0 23 7 0c11 0 19 8 19 19 0 10-8 19-19 19l-157 0c-11 0-19-9-19-19 0-11 8-19 19-19z m0 26l157 0c4 0 7-3 7-7 0-4-3-7-7-7l-157 0c-4 0-8 3-8 7 0 4 4 7 8 7z m298-413l-85 217 0 100 3 0c11 0 19 9 19 19 0 11-8 19-19 19l-98 0c-10 0-19-8-19-19 0-10 9-19 19-19l3 0 0-100-23-60c-2-3 0-6 3-7 3-2 6 0 8 3l22 58 72 0 84-216c4-9 3-19-3-27-5-8-14-13-24-13l-149 0c-4 0-6-3-6-6 0-3 2-6 6-6l149 0c13 0 26 7 34 18 8 12 9 26 4 39z m-187 336c0 5 3 8 7 8l98 0c4 0 7-3 7-8 0-4-3-7-7-7l-98 0c-4 0-7 3-7 7z m90-19l0-95-68 0 0 95z m0-166l65-164c0-2 3-4 5-4 1 0 1 0 2 1 3 1 5 4 3 7l-64 165c-1 3-5 4-8 3-3-1-4-5-3-8z m0 33c-1 3-5 5-8 3-3-1-4-4-3-7l5-12c1-2 3-4 5-4 1 0 2 0 2 1 3 1 5 4 4 7z m-13-63l44-113c1-2 3-4 6-4 0 0 1 0 2 1 3 1 4 4 3 7l-44 114c-2 3-5 4-8 3-3-1-4-5-3-8z m2 109c3 0 5 2 5 5l0 71c0 3-2 6-5 6-4 0-6-3-6-6l0-71c0-3 2-5 6-5z m-164 137l0-53c0-3 2-5 6-5 3 0 5 2 5 5l0 53c0 3-2 6-5 6-4 0-6-3-6-6z m3-189c3 0 6 2 6 6l0 34c0 3-3 5-6 5-4 0-6-2-6-5l0-34c0-4 2-6 6-6z m-72 0c4 0 6 2 6 6l0 10c0 3-2 6-6 6-3 0-6-3-6-6l0-10c0-4 3-6 6-6z m0 27c2 0 3 1 4 2 2 1 2 3 2 4 0 2 0 3-2 4-1 1-2 2-4 2-1 0-3-1-4-2-1-1-2-2-2-4 0-1 1-3 2-4 1-1 3-2 4-2z"/>
<glyph glyph-name="children-backpack" unicode="&#65;" d="M420 343l0 88c0 16-12 28-28 28l-39 0c-10 0-19-5-24-13-2 1-4 2-6 3 0 1 0 2 0 3 0 33-27 60-61 60-33 0-60-27-60-60 0-1 0-2 0-3-2-1-4-2-6-3-5 9-14 14-24 14l-40 0c-15 0-27-13-27-28l0-89c-5-15-7-31-7-47l0-2c-5-1-9-6-9-11l0-26c0-5 3-8 7-10 0 0-8-21-10-28-1 0-1-2-1-2-1-9 5-16 13-20l0-162c0-19 15-35 34-35l260 0c19 0 35 16 35 35l0 261c0 16-2 32-7 47z m-67 102l39 0c8 0 13-6 13-14l0-54c-14 26-36 48-62 62 2 4 6 6 10 6z m-91 52c25 0 45-19 46-43-4 1-7 2-11 3-3 17-17 29-35 29-17 0-32-12-34-29-4-1-8-2-11-3 1 24 21 43 45 43z m19-38c-6 1-12 1-19 1-6 0-12 0-18-1 3 8 10 13 18 13 9 0 16-5 19-13z m-162-27c0 7 6 13 13 13l40 0c4 0 8-2 10-5-26-15-48-37-63-63z m143 14c76 0 139-57 149-130-9 18-20 34-35 48-30 30-71 46-114 46-38 0-75-13-104-38-19-15-34-34-44-56 10 73 73 130 148 130z m-153-237c-5 0-9 3-9 7 1 6 9 24 9 24 0 0 8-18 9-24 0-4-5-7-9-7z m-5 71l10 0 0-20-10 0z m258-200c0 0 8-18 9-25 0-4-5-6-9-6-5 0-9 2-9 6 1 7 9 25 9 25z m-5 20l0 10 10 0 0-10z m-231 25c-8 0-13 5-14 13l0 18c0 11 9 20 20 20l260 0c10 0 19-8 20-18l0-20c0-7-6-13-13-13z m286-90c0-11-9-20-20-20l-260 0c-11 0-20 9-20 20l0 78c4-2 9-3 14-3l216 0 0-14c0-4 3-8 7-10 0 0-8-20-10-27-1-1-1-2-1-3-1-12 11-22 24-22 13 0 25 10 23 22 0 1 0 2 0 3-2 7-10 27-10 27 4 2 6 6 6 10l0 14 18 0c5 0 9 1 13 3z m0 149c-5 4-12 6-20 6l-260 0c-7 0-14-2-20-6l0 11c12 1 21 11 20 22 0 0 0 2 0 3-2 7-10 27-10 27 4 2 6 5 6 10l0 26c0 5-3 9-8 11 21 60 78 101 142 101 81 0 147-63 150-143l0 0 0-68z"/>
<glyph glyph-name="clipboard" unicode="&#66;" d="M359 443l-16 0c-4 0-8-3-8-8 0-4 4-8 8-8l16 0c10 0 17-8 17-17l0-377c0-9-7-17-17-17l-288 0c-9 0-17 8-17 17l0 377c0 9 8 17 17 17l16 0c5 0 8 4 8 8 0 5-3 8-8 8l-16 0c-19 0-33-15-33-33l0-377c0-18 14-33 33-33l288 0c19 0 34 15 34 33l0 377c0 18-15 33-34 33z m115-362c0 0 0 272 0 272 0 0 0 1 0 1 0 0 0 0 0 0 0 1 0 1 0 2l-19 61c-1 3-4 6-8 6-3 0-7-3-8-6l-19-61c0-1 0-1 0-2 0 0 0 0 0 0 0 0 0-1 0-1l0-298c0-12 10-22 22-22l10 0c12 0 22 10 22 22 0 0 0 26 0 26z m-27 306l8-26-16 0z m-11-42l22 0 0-256-22 0z m22-290c0-3-3-6-6-6l-10 0c-3 0-6 3-6 6l0 18 22 0z m-158 79l-169 0c-5 0-8-4-8-8 0-5 3-8 8-8l169 0c4 0 8 3 8 8 0 4-4 8-8 8z m-85-33l-84 0c-5 0-8-3-8-8 0-4 3-8 8-8l84 0c5 0 8 4 8 8 0 5-3 8-8 8z m-145 301l0-361c0-5 4-8 8-8l274 0c4 0 8 3 8 8l0 361c0 5-4 9-8 9l-33 0 0 24c0 18-15 33-34 33l-19 0c-4 25-25 44-51 44-26 0-47-19-51-44l-19 0c-18 0-33-15-33-33l0-24-34 0c-4 0-8-4-8-9z m58 33c0 9 8 17 17 17l27 0c4 0 8 4 8 8 0 20 16 36 35 36 20 0 36-16 36-36 0-4 3-8 8-8l26 0c10 0 17-8 17-17l0-57-174 0z m-41-41l25 0 0-24c0-5 3-8 8-8l190 0c5 0 9 3 9 8l0 24 25 0 0-345-257 0z m128 80c-4 0-8-4-8-8l0-11c0-5 4-8 8-8 5 0 8 3 8 8l0 11c0 4-3 8-8 8z m85-148l-11 0c-5 0-9-4-9-9 0-4 4-8 9-8l2 0 0-99-2 0c-5 0-9-3-9-8 0-4 4-8 9-8l11 0c4 0 8 4 8 8l0 115c0 5-4 9-8 9z m-169-176l125 0c4 0 8 4 8 9l0 10c0 5-4 9-8 9-5 0-8-4-8-9l0-2-109 0 0 2c0 5-4 9-8 9-5 0-8-4-8-9l0-10c0-5 3-9 8-9z m0 44l125 0c4 0 8 4 8 8l0 115c0 5-4 9-8 9l-125 0c-5 0-8-4-8-9l0-21c0-5 3-9 8-9 4 0 8 4 8 9l0 13 109 0 0-99-109 0 0 53c0 4-4 8-8 8-5 0-8-4-8-8l0-61c0-4 3-8 8-8z"/>
<glyph glyph-name="clock" unicode="&#67;" d="M256 491c-130 0-235-105-235-235 0-130 105-235 235-235 130 0 235 105 235 235 0 130-105 235-235 235z m0-458c-123 0-223 100-223 223 0 123 100 223 223 223 123 0 223-100 223-223 0-123-100-223-223-223z m0 479c-141 0-256-115-256-256 0-68 27-133 75-181 48-48 113-75 181-75 141 0 256 115 256 256 0 141-115 256-256 256z m0-500c-135 0-244 109-244 244 0 135 109 244 244 244 135 0 244-109 244-244 0-135-109-244-244-244z m0 449c-113 0-205-92-205-205 0-113 92-205 205-205 113 0 205 92 205 205 0 113-92 205-205 205z m0-398c-107 0-193 86-193 193 0 107 86 193 193 193 107 0 193-86 193-193 0-107-86-193-193-193z m-3 347l5 5 0-30c0-3 2-6 6-6 3 0 6 3 6 6l0 44c0 3-2 5-4 6-2 1-5 0-7-1l-15-16c-2-2-2-6 0-8 2-3 6-3 9 0z m182-145c0 10-8 19-19 19-10 0-19-9-19-19 0-3 3-6 6-6 3 0 6 3 6 6 0 4 3 7 7 7 4 0 7-3 7-7 0-1 0-2 0-3l-5 0c-3 0-6-3-6-6 0-3 3-6 6-6l5 0c0-1 0-2 0-3 0-4-3-7-7-7-4 0-7 3-7 7 0 3-3 6-6 6-3 0-6-3-6-6 0-10 9-19 19-19 11 0 19 9 19 19 0 3 0 6-2 9 2 3 2 6 2 9z m-177-154l-9 0 0 5c0 3 2 5 5 5l4 0c2 0 3-1 4-2 2-2 6-2 8 0 3 3 3 6 0 9-3 3-7 5-12 5l-4 0c-10 0-17-8-17-17l0-22c0-10 7-17 17-17l4 0c10 0 17 7 17 17 0 9-7 17-17 17z m0-22l-4 0c-3 0-5 2-5 5l0 5 9 0c3 0 5-2 5-5 0-3-2-5-5-5z m-143 156l0 22c0 9-8 17-17 17l-4 0c-10 0-17-8-17-17 0-9 7-17 17-17l9 0 0-5c0-3-2-5-5-5l-4 0c-2 0-3 0-4 1-2 3-6 3-8 0-3-2-3-6 0-8 3-3 7-5 12-5l4 0c9 0 17 8 17 17z m-12 17l-9 0c-3 0-5 2-5 5 0 3 2 5 5 5l4 0c3 0 5-2 5-5z m79 147c-1 3-5 4-8 2-3-1-4-5-2-8l16-28c1-2 3-3 5-3 1 0 2 1 3 1 3 2 4 5 2 8z m158-272c-2 3-6 4-9 2-3-2-4-5-2-8l16-28c1-2 3-3 5-3 1 0 2 0 3 1 3 1 4 5 3 8z m-196 195l-27 16c-3 1-7 1-9-2-1-3 0-7 3-9l27-16c1 0 2 0 3 0 3 0 5 1 6 3 1 2 0 6-3 8z m273-157l-28 16c-3 1-7 0-8-3-2-2-1-6 2-8l28-16c1 0 2-1 3-1 2 0 4 1 5 3 2 3 1 7-2 9z m-279 16l-27-16c-3-2-4-6-3-9 2-2 4-3 6-3 1 0 2 1 3 1l27 16c3 2 4 6 3 8-2 3-6 4-9 3z m248 130c1 0 2 0 3 0l28 16c3 2 4 6 2 9-2 3-5 3-8 2l-28-16c-3-2-4-6-2-8 1-2 3-3 5-3z m-190-182c-3 2-6 1-8-2l-16-28c-2-3-1-7 2-8 1-1 2-1 3-1 2 0 4 1 5 3l16 28c2 3 1 6-2 8z m157 272c-3 2-6 1-8-2l-16-28c-2-3-1-6 2-8 1 0 2-1 3-1 2 0 4 1 6 3l16 28c1 3 0 7-3 8z m-53-149l-21 0c-2 8-9 15-17 17l0 76c0 4-3 6-6 6-3 0-6-2-6-6l0-76c-10-3-18-12-18-23 0-13 11-24 24-24 11 0 20 8 23 18l21 0c4 0 6 3 6 6 0 3-2 6-6 6z m-44-18c-6 0-12 6-12 12 0 6 6 12 12 12 6 0 12-6 12-12 0-6-6-12-12-12z"/>
<glyph glyph-name="closed-notebook-and-pen" unicode="&#68;" d="M433 387c-4 0-8 4-8 8l0 22c0 4 4 7 8 7 4 0 7-3 7-7l0-22c0-4-3-8-7-8z m0-199c-4 0-8 3-8 7l0 175c0 4 4 7 8 7 4 0 7-3 7-7l0-175c0-4-3-7-7-7z m33 262c0 7-5 14-12 16l0 15c0 6-5 11-11 11l-25 0c-6 0-11-5-11-11l0-15c-7-2-12-9-12-16l0-342c0-5 2-9 5-12 0 0 0 0 0 0 0 0 18-37 24-49 1-3 4-5 7-4 2 0 5 1 6 4 6 12 24 49 24 49 0 0 0 0 0 0 3 3 5 7 5 12z m-27 27l0-9-17 0 0 9z m-8-410l-12 23 23 0z m17 38l-35 0c-2 0-3 1-3 3l0 342c0 2 1 3 3 3l35 0c2 0 3-1 3-3l0-342c0-2-1-3-3-3z m-108 387l-280 0c-13 0-24-11-24-24l0-12-14 0c-12 0-22-9-22-19 0-11 10-20 22-20l14 0 0-20-14 0c-12 0-22-9-22-19 0-11 10-20 22-20l14 0 0-20-14 0c-12 0-22-9-22-20 0-10 10-19 22-19l14 0 0-84-14 0c-12 0-22-8-22-19 0-11 10-19 22-19l14 0 0-21-14 0c-12 0-22-9-22-19 0-11 10-20 22-20l14 0 0-20-14 0c-12 0-22-9-22-19 0-11 10-20 22-20l14 0 0-14c0-13 11-24 24-24l280 0c13 0 24 11 24 24l0 424c0 13-11 24-24 24z m-318-60c-4 0-7 2-7 5 0 2 3 5 7 5l43 0c4 0 7-3 7-5 0-3-3-5-7-5z m0-59c-4 0-7 2-7 5 0 2 3 4 7 4l43 0c4 0 7-2 7-4 0-3-3-5-7-5z m-7-55c0 3 3 5 7 5l43 0c4 0 7-2 7-5 0-2-3-4-7-4l-43 0c-4 0-7 2-7 4z m0-122c0 2 3 5 7 5l43 0c4 0 7-3 7-5 0-2-3-5-7-5l-43 0c-4 0-7 3-7 5z m0-59c0 2 3 5 7 5l43 0c4 0 7-3 7-5 0-3-3-5-7-5l-43 0c-4 0-7 2-7 5z m7-64c-4 0-7 2-7 5 0 2 3 4 7 4l43 0c4 0 7-2 7-4 0-3-3-5-7-5z m327 144l-156 0c-7 0-13 5-13 12l0 54c0 7 6 12 13 12l156 0z m0 93l-156 0c-16 0-28-12-28-27l0-54c0-15 12-27 28-27l156 0 0-158c0-5-4-9-9-9l-280 0c-5 0-9 4-9 9l0 14 14 0c12 0 21 9 21 20 0 10-9 19-21 19l-14 0 0 20 14 0c12 0 21 9 21 20 0 10-9 19-21 19l-14 0 0 21 14 0c12 0 21 8 21 19 0 11-9 19-21 19l-14 0 0 84 14 0c12 0 21 9 21 19 0 11-9 20-21 20l-14 0 0 20 14 0c12 0 21 9 21 20 0 10-9 19-21 19l-14 0 0 20 14 0c12 0 21 9 21 20 0 10-9 19-21 19l-14 0 0 12c0 5 4 9 9 9l280 0c5 0 9-4 9-9z m-122-78c13 0 24 11 24 24 0 13-11 24-24 24-14 0-24-11-24-24 0-13 10-24 24-24z m0 33c5 0 9-4 9-9 0-5-4-9-9-9-5 0-10 4-10 9 0 5 5 9 10 9z m278-245l-102 0c-5 0-8 3-8 7 0 4 3 8 8 8l102 0c4 0 7-4 7-8 0-4-3-7-7-7z"/>
<glyph glyph-name="compass" unicode="&#69;" d="M359 56l-42 211 28 0c3 0 5 3 5 6 0 3-2 5-5 5l-30 0-20 105c1 4 2 8 2 13 0 20-16 37-36 40l0 4 8 0c3 0 5 2 5 5l0 56c0 6-5 11-11 11l-14 0c-6 0-11-5-11-11l0-56c0-3 2-5 5-5l8 0 0-4c-20-3-36-20-36-40 0-5 1-9 2-13l-20-105-30 0c-3 0-5-2-5-5 0-3 2-6 5-6l28 0-42-211c-1-1 0-2 1-4l24-36-2-10c-1-3 1-5 4-6 0 0 1 0 1 0 2 0 5 2 5 4l9 43c10 0 19 8 21 18 1 6 0 12-3 17-3 4-6 7-10 8l35 177 13 0 0-17c0-3 2-5 5-5 3 0 5 2 5 5l0 17 13 0 35-177c-4-1-7-4-10-8-3-5-4-11-3-17 1-6 5-11 10-14 3-3 7-4 11-4l9-43c0-2 3-4 5-4 0 0 1 0 1 0 3 1 5 3 4 6l-2 10 24 36c1 2 2 3 1 4z m-111 445c0 0 1 0 1 0l14 0c0 0 1 0 1 0l0-50-16 0z m20-149c-1 7 0 14 4 20 3 4 7 7 12 10l41-207-24 8z m59-189l4-21-21-5-6 34z m-76 262l0-3c0-3 2-5 5-5 3 0 5 2 5 5l0 3c14-2 25-15 25-29 0-1 0-2 0-3-9-2-18-7-23-15-2-4-4-8-5-12-1 0-3 0-4 0-1 4-3 8-5 12-5 8-14 13-23 15 0 1 0 2 0 3 0 14 11 27 25 29z m-23-43c5-3 9-6 12-10 4-6 5-13 4-20l-63-321-17 26z m-24-306c2-2 2-6 2-9-1-3-3-6-6-7-1-1-2-2-3-2l4 21c1 0 2-1 3-3z m57 202l0 13c0 3-2 5-5 5-3 0-5-2-5-5l0-13-11 0 15 71c0 2 0 4 0 6 1 0 1 0 1 0 0 0 0 0 1 0 0-2 0-4 0-6l15-71z m45-211c0 3 0 7 2 9 2 3 5 5 8 6 1 0 2 0 2 0 6 0 11-4 12-10 2-7-3-13-9-14-3-1-7 0-9 2-3 1-5 4-6 7z m25-36l-3 18c9 4 15 15 13 25-2 11-11 18-22 19l-7 34 22 4 14-74z m-9 35c1 1 2 2 2 4 0 1-1 2-2 3-1 1-2 2-4 2-1 0-2-1-3-2-1-1-2-2-2-3 0-2 1-3 2-4 1-1 2-2 3-2 2 0 3 1 4 2z"/>
<glyph glyph-name="cup" unicode="&#70;" d="M393 282c-6 0-9-4-9-9 0-48-39-85-90-85l-76 0c-51 0-90 37-90 85 0 5-3 9-9 9-5 0-8-4-8-9 0-57 47-102 107-102l76 0c60 0 107 45 107 102 0 5-3 9-8 9z m69 162l-27 0 0 43c0 14-11 25-24 25l-309 0c-14 0-25-11-25-25l0-43-27 0c-27 0-50-24-50-51l0-77c0-36 19-70 49-89l49-29 6-3c23-32 59-54 101-58l0-35-1 0c-14 0-25-11-25-24l0-10-17 0c-33 0-60-26-60-59 0-6 4-9 9-9l290 0c5 0 9 3 9 9 0 33-27 59-60 59l-18 0 0 10c0 13-11 24-25 24l-2 0 0 35c44 3 81 26 105 60l53 31c30 19 49 52 49 88l0 77c0 28-23 51-50 51z m-368 43c0 5 3 8 8 8l308 0c5 0 8-3 8-8l0-26-324 0z m-17-215l-1 0c-15 9-25 26-25 44l0 77 26 0 0-116c0-2 0-3 0-5z m-18-30c-26 16-42 44-42 74l0 77c0 18 15 34 33 34l27 0 0-17-28 0c-8 0-15-10-15-17l0-77c0-24 13-47 33-59l13-7c1-9 4-17 7-25z m333-225l-272 0c5 20 22 34 42 34l188 0c20 0 37-14 42-34z m-84 68c4 0 8-3 8-7l0-10-120 0 0 10c0 4 4 7 8 7z m-86 17l0 35 68 0 0-35z m78 51c-1 0-2 1-3 1l-2 0c-1 0-1 0-1 0l-77 0c-1 0-1 0-2 0l-2 0c-1 0-2-1-3-1-38 2-72 22-93 52-1 1-1 2-2 3-10 15-16 31-19 49-1 0-1 0-1 1-1 6-1 12-1 18l0 168 324 0 0-168c0-66-52-120-118-123z m135 123l0 115 26 0 0-77c0-18-10-34-25-43l-1-1c0 2 0 4 0 6z m61 40c0-30-16-58-42-74l-28-17c2 8 5 16 7 24l11 9c20 12 33 34 33 58l0 77c0 8-6 17-15 17l-27 0 0 17 28 0c17 0 33-16 33-34z m-284 7l-7-48c-1-4 1-7 3-9 3-1 7-1 10 0l38 22 38-23c2 0 3 0 5 0 1 0 3 0 5 1 2 2 4 5 3 9l-7 48 31 40c2 2 3 6 1 9-2 3-4 5-8 5l-41 0-19 39c-4 6-13 6-16 0l-19-39-41 0c-4 0-6-2-8-5-2-3-1-7 1-9z m22 35c3 0 6 2 7 5l15 28 15-28c1-3 4-5 7-5l28 0-23-29c-1-1-1-4-1-6l6-33-28 15c-1 1-2 1-4 1-2 0-3 0-3-1l-28-16 5 34c1 2 0 5-1 6l-23 29z"/>
<glyph glyph-name="cup-1" unicode="&#71;" d="M350 376c38 4 68 36 68 76l0 17c0 5-3 9-8 9l-60 0 0 17 17 0c5 0 8 3 8 8 0 6-3 9-8 9l-222 0c-5 0-8-3-8-9 0-5 3-8 8-8l17 0 0-17-60 0c-5 0-8-4-8-9l0-17c0-40 30-72 68-76 3-33 23-61 51-76l0-27-8 0c-5 0-9-3-9-8 0-6 4-9 9-9l8 0 0-26-8 0c-5 0-9-3-9-8 0-5 4-9 9-9l8 0 0-25-8 0c-5 0-9-4-9-9 0-5 4-8 9-8l8 0c0-10-5-18-11-25l-25-18-6 0c-19 0-34-15-34-34l0-43-26 0c-5 0-9-3-9-8l0-34c0-6 4-9 9-9l290 0c5 0 9 3 9 9l0 34c0 5-4 8-9 8l-26 0 0 43c0 19-15 34-34 34l-6 0-25 18c-6 7-11 15-11 25l8 0c5 0 9 3 9 8 0 5-4 9-9 9l-8 0 0 25 8 0c5 0 9 4 9 9 0 5-4 8-9 8l-8 0 0 26 8 0c5 0 9 3 9 9 0 5-4 8-9 8l-8 0 0 27c28 15 48 43 51 76z m51 85l0-9c0-30-22-54-51-59l0 68z m-290-9l0 9 51 0 0-68c-29 5-51 29-51 59z m68-68l0 111 154 0 0-111c0-43-34-77-77-77-43 0-77 34-77 77z m-25-290c0 9 7 17 17 17l41 0c-1-2-2-4-3-5 0-1 0-1 0-1 0 0-1-1-1-2 0 0 0 0 0-1 0 0 0 0 0 0-1-1-1-2-1-3 0 0 0 0 0 0-1-1-1-1-1-2 0 0 0 0 0 0 0-1 0-2 0-2 0-1 0-1-1-1 0-1 0-1 0-1 0-1 0-2 0-2 0 0 0 0 0-1 0 0 0-1 0-2 0 0 0 0 0 0 0-1 0-2 0-3 0-12 4-24 13-34l-64 0z m102-43c-19 0-34 16-34 34 0 12 5 22 14 28 12 8 28 8 40 0 0 0 1-1 1-1 4-3 7-7 9-11 0 0 1 0 1-1 0 0 0 0 0-1 0 0 0 0 0 0 0 0 0 0 0 0 1-2 2-5 2-7 0 0 0 0 0 0 1 0 1-1 1-1 0 0 0-1 0-1 0 0 0-1 0-1 0 0 0-1 0-1 0 0 0 0 0-1 0 0 0-1 0-2 0-18-15-34-34-34z m137-34l-274 0 0 17 274 0z m-35 77l0-43-64 0c2 2 4 4 5 7 5 7 8 16 8 25 0 1 0 2 0 2 0 1 0 2 0 3 0 0 0 0 0 0 0 1 0 2 0 2 0 1 0 1 0 1 0 0 0 1 0 2 0 0 0 0 0 1-1 0-1 0-1 1 0 0 0 1 0 2 0 0 0 0 0 0 0 1 0 1-1 2 0 0 0 0 0 0 0 1 0 2-1 3 0 0 0 0 0 0 0 1 0 1 0 1 0 1-1 2-1 2 0 0 0 0 0 1-1 1-2 3-3 5l41 0c10 0 17-8 17-17z m-60 39l1-1 6-4-21 0c-8 5-18 9-28 9-10 0-20-4-28-9l-21 0 6 4 1 1c10 11 16 23 16 38l52 0c0-15 6-28 16-38z m-16 55l-52 0 0 25 52 0z m0 42l-52 0 0 26 52 0z m-52 43l0 21c17-6 35-6 52 0l0-21z m55 78c3-2 7-1 9 1 4 1 5 5 4 8l-7 30 23 32c2 2 3 6 1 8-2 3-4 5-8 5l-29 0-14 29c-2 4-5 5-8 5-3 0-6-1-8-5l-14-29-29 0c-4 0-6-2-8-5-2-2-1-6 1-8l23-32-7-30c0-3 1-7 4-8 1-1 3-2 5-2 1 0 2 0 3 1l30 15z m-49 23l3 16c0 3 0 5-2 8l-15 20 17 0c3 0 7 2 8 4l9 19 9-18c2-3 5-5 8-5l17 0-15-21c-2-2-3-4-2-7l4-16-17 8c-2 1-5 1-7 0z"/>
<glyph glyph-name="desk-lamp" unicode="&#72;" d="M433 69l-25 0 0 138c0 38-7 75-22 110-14 35-35 66-62 93l-3 4c9 10 14 24 14 38 0 16-7 31-18 42-11 12-26 18-42 18-16 0-32-6-43-18l-38-38c-42 12-88 0-119-31-3-2-3-6 0-8l48-49c-14-19-13-46 4-63 10-10 22-14 34-14 11 0 21 3 30 10l48-49c2-1 3-1 5-1 1 0 3 0 4 1 31 32 43 77 31 120l16 15c23-25 42-53 55-85 14-34 21-69 21-105l0-128-57 0 0 7c0 3-2 5-5 6l-54 10c-2 0-4 0-5-1-1-1-2-3-2-5l0-17-51 0c-3 0-5-3-5-6l0-57c0-3 2-6 5-6l236 0c3 0 6 3 6 6l0 57c0 3-3 6-6 6z m-272 233c-10 0-19 4-26 11-12 13-14 33-3 47l51-51c-7-4-14-7-22-7z m94-22l-15 16c-2 2-6 2-8 0-2-3-2-6 0-9l17-16c-2-2-4-4-6-6l-156 156c2 2 4 3 6 5l31-31c1-1 2-1 4-1 1 0 3 0 4 1 2 3 2 6 0 9l-29 29c26 16 59 21 90 12l74-75c9-31 5-63-12-90z m17 101l-68 69 5 5 30-31c1-1 3-1 4-1 2 0 3 0 4 1 3 3 3 6 0 9l-30 30 23 23c9 9 22 14 35 14 12 0 25-5 34-14 9-9 14-21 14-34 0-13-5-25-14-34z m89-75c-14 34-33 64-58 89l10 10 3-3c26-26 46-56 60-89 14-34 21-70 21-106l0-138-14 0 0 128c0 37-8 74-22 109z m-101-227l42-8 0-2-42 0z m-57-67l0 7 114 0c4 0 6 2 6 6 0 3-2 5-6 5l-114 0 0 27 224 0 0-27-40 0c-4 0-6-2-6-5 0-4 2-6 6-6l40 0 0-7z m148 18l-14 0c-3 0-6-2-6-5 0-4 3-6 6-6l14 0c3 0 6 2 6 6 0 3-3 5-6 5z m-179 333c-2 2-6 2-8 0-2-2-2-6 0-8l12-12c1-1 2-1 4-1 1 0 3 0 4 1 2 3 2 6 0 9z"/>
<glyph glyph-name="diploma" unicode="&#73;" d="M512 439c0 30-23 53-55 55l0 0-302 0c-30 0-54-25-54-55l0-293-101 0 0-73c0-30 22-52 55-55l292 0c36 0 64 29 64 64l0 265 101 0z m-494-366l0 55 275 0 0-55c0-14 5-27 14-36l-251 0c-22 1-38 16-38 36z m256 110c0 25 20 46 46 46 26 0 46-21 46-46 0-13-5-24-13-32-1-1-2-1-3-2-10-10-25-14-39-11l0 8-18 0c-12 9-19 22-19 37z m37-64c3 0 6 0 9 0 10 0 19 2 27 6l0-34-22 17c-1 1-3 2-5 2-2 0-4-1-5-2l-4-3z m82-37c0-25-20-45-45-45-22 1-37 16-37 36l0 9 9 7 31-23c2-1 4-2 6-2 1 0 2 0 3 1 4 2 6 4 6 8l0 65c11 11 18 27 18 45 0 36-28 64-64 64-36 0-64-28-64-64 0-13 4-26 11-37l-148 0 0 293c0 20 16 36 36 36l253 0c-2-1-3-2-4-3-6-9-10-19-11-30 0 0 0 0 0 0 0-1 0-2 0-3z m101 284l-83 0 0 73c0 1 0 1 0 2 0 0 1 0 1 0 0 1 0 2 0 2 0 0 0 0 0 1 0 0 0 1 0 1 0 0 0 0 0 1 0 0 0 1 0 1 0 0 0 0 0 1 1 0 1 1 1 1 0 0 0 0 0 0 0 1 0 1 0 2 1 0 1 0 1 0 0 1 0 1 0 2 0 0 0 0 0 0 1 1 1 1 1 1 0 1 0 1 0 1 0 0 1 1 1 1 0 0 0 1 0 1 0 0 0 0 0 0 6 9 16 15 26 17 3 1 7 1 11 1 20 0 41-12 41-36z m-329 18l91 0c5 0 9 4 9 9 0 6-4 9-9 9l-91 0c-6 0-10-3-10-9 0-5 4-9 10-9z m182-27l-182 0c-6 0-10-4-10-10 0-5 4-9 10-9l182 0c6 0 10 4 10 9 0 6-4 10-10 10z m-27-46l-155 0c-6 0-10-4-10-9 0-6 4-9 10-9l155 0c5 0 9 3 9 9 0 5-4 9-9 9z m-55-46l-100 0c-6 0-10-4-10-9 0-5 4-9 10-9l100 0c6 0 9 4 9 9 0 5-3 9-9 9z m-36-46l-64 0c-6 0-10-3-10-9 0-5 4-9 10-9l64 0c5 0 9 4 9 9 0 6-4 9-9 9z"/>
<glyph glyph-name="diploma-1" unicode="&#74;" d="M512 439c0 30-23 53-55 55l0 0-302 0c-30 0-54-25-54-55l0-293-101 0 0-73c0-30 22-52 55-55l292 0c36 0 64 29 64 64l0 265 101 0z m-494-366l0 55 275 0 0-55c0-14 5-27 14-36l-251 0c-22 1-38 16-38 36z m375 9c0-25-20-45-45-45-22 1-37 16-37 36l0 73-192 0 0 293c0 20 16 36 36 36l253 0c-2-1-3-2-4-3-6-9-10-19-11-30 0 0 0 0 0 0 0-1 0-2 0-3z m101 284l-83 0 0 73c0 1 0 1 0 2 0 0 1 0 1 0 0 1 0 2 0 2 0 0 0 0 0 1 0 0 0 1 0 1 0 0 0 0 0 1 0 0 0 1 0 1 0 0 0 0 0 1 1 0 1 1 1 1 0 0 0 0 0 0 0 1 0 1 0 2 1 0 1 0 1 0 0 1 0 1 0 2 0 0 0 0 0 0 1 1 1 1 1 1 0 1 0 1 0 1 0 0 1 1 1 1 0 0 0 1 0 1 0 0 0 0 0 0 6 9 16 15 26 17 3 1 7 1 11 1 20 0 41-12 41-36z m-329 27l91 0c5 0 9 4 9 9 0 6-4 9-9 9l-91 0c-6 0-10-3-10-9 0-5 4-9 10-9z m182-146l-182 0c-6 0-10-4-10-9 0-6 4-9 10-9l182 0c6 0 10 3 10 9 0 5-4 9-10 9z m-164-55l-18 0c-6 0-10-4-10-9 0-6 4-9 10-9l18 0c5 0 9 3 9 9 0 5-4 9-9 9z m82 0l-27 0c-6 0-9-4-9-9 0-6 3-9 9-9l27 0c6 0 9 3 9 9 0 5-3 9-9 9z m-100 91l27 0c5 0 9 4 9 10 0 5-4 9-9 9l-27 0c-6 0-10-4-10-9 0-6 4-10 10-10z m182 19l-100 0c-6 0-9-4-9-9 0-6 3-10 9-10l100 0c6 0 10 4 10 10 0 5-4 9-10 9z m-182 36l73 0c5 0 9 4 9 9 0 6-4 10-9 10l-73 0c-6 0-10-4-10-10 0-5 4-9 10-9z m182 19l-54 0c-6 0-10-4-10-10 0-5 4-9 10-9l54 0c6 0 10 4 10 9 0 6-4 10-10 10z"/>
<glyph glyph-name="diploma-2" unicode="&#75;" d="M466 242l-115 116c0 4 0 8-1 13l0 47c0 52-41 94-93 94-52 0-94-42-94-94l0-38c-2-8-3-15-3-23l-115-116c-2-1-3-5-2-8 1-3 4-5 7-6l65-9 9-65c1-4 3-6 6-7 1-1 2-1 3-1 2 0 4 1 6 3l23 22 0-76c0-52 42-94 94-94 1 0 3 0 5 0 49 3 89 43 90 94l0 74 21-20c1-2 3-3 6-3 1 0 1 0 3 2 4 1 5 3 6 7l10 64 64 10c4 1 6 2 7 6 2 2 1 6-2 8z m-133 105c-2-17-10-32-22-44-2-2-3-3-5-5-9-8-20-13-32-16-1 0-2-1-3-1-3 0-5-1-7-1-2 0-3 0-4 0l-9 0c-19 2-37 9-51 23-11 10-18 24-21 39l1 0 0 35c3 13 10 26 20 36 16 15 36 23 56 23 19 0 40-8 55-23 13-12 20-28 22-44z m-153 71c0 43 34 77 77 77 42 0 76-34 76-77l0-4c-3 4-6 8-10 12-37 37-97 37-135 0-3-3-6-7-8-10z m-41-246l-8 54c-1 4-3 7-8 8l-54 7 94 93c1-3 2-5 3-8 3-9 7-17 13-25 0 0 0 0 0 0 1-1 1-2 2-2 0-1 0-1 1-1 0-1 0-1 1-2 0 0 0-1 1-1 0 0 1-1 1-1 0-1 1-1 1-1 1-1 2-2 2-3 12-12 28-20 45-25z m117-155c-43 0-77 34-77 77 0 43 34 77 77 77 24 0 46-12 60-29 0-1 0-1 0-1 8-16 10-35 4-52-6-17-18-32-34-40-27-12-58-1-71 24-5 10-6 21-3 31 4 10 11 18 21 23 15 8 33 2 41-14 5-11 0-24-11-30-8-4-18-1-22 7-1 4-7 6-11 4-3-2-5-7-3-11 8-17 29-24 45-16 20 11 27 35 18 54-12 24-40 33-64 22-14-7-24-19-29-34-4-14-4-30 3-43 12-24 37-39 63-39 10 0 21 3 29 7 16 8 28 19 36 34-11-30-39-51-72-51z m77 131c-17 24-45 40-77 40-32 0-60-16-77-40l0 39 77 76c0 0 0 0 0 0 0 0 0 0 1 0l76-76z m53 85c-3 0-6-3-7-7l-7-54-21 20 0 2-71 71c16 4 32 13 44 25 12 12 20 27 24 43l93-92z"/>
<glyph glyph-name="diploma-3" unicode="&#76;" d="M469 324c-5 0-8-3-8-8l0-9c0-5 3-8 8-8 5 0 9 3 9 8l0 9c0 5-4 8-9 8z m0 69c-5 0-8-3-8-8l0-20c0-5 3-8 8-8 5 0 9 4 9 8l0 20c0 5-4 8-9 8z m-8 42c0-5 3-8 8-8 5 0 9 3 9 8l0 17-17 0c-5 0-9-3-9-8 0-5 4-9 9-9z m-305 0l17 0c4 0 9 4 9 9 0 5-4 8-9 8l-17 0c-5 0-8-3-8-8 0-5 3-9 8-9z m61 0l17 0c5 0 8 4 8 9 0 5-3 8-8 8l-17 0c-5 0-9-3-9-8 0-5 4-9 9-9z m-122 0l17 0c5 0 8 4 8 9 0 5-3 8-8 8l-17 0c-5 0-9-3-9-8 0-5 4-9 9-9z m244 0l17 0c5 0 8 4 8 9 0 5-3 8-8 8l-17 0c-5 0-9-3-9-8 0-5 4-9 9-9z m-61 0l17 0c5 0 9 4 9 9 0 5-4 8-9 8l-17 0c-5 0-8-3-8-8 0-5 3-9 8-9z m122 0l17 0c5 0 9 4 9 9 0 5-4 8-9 8l-17 0c-5 0-8-3-8-8 0-5 3-9 8-9z m-357-8c5 0 8 3 8 8 5 0 9 4 9 9 0 5-4 8-9 8l-17 0 0-17c0-5 4-8 9-8z m0-185c5 0 8 4 8 9l0 18c0 5-3 8-8 8-5 0-9-3-9-8l0-18c0-5 4-9 9-9z m0 62c5 0 8 3 8 8l0 18c0 5-3 9-8 9-5 0-9-4-9-9l0-18c0-5 4-8 9-8z m0 61c5 0 8 4 8 9l0 18c0 5-3 8-8 8-5 0-9-3-9-8l0-18c0-5 4-9 9-9z m0-185c5 0 8 4 8 9l0 18c0 5-3 8-8 8-5 0-9-3-9-8l0-18c0-6 4-9 9-9z m17-43c0 5-4 8-9 8 0 5-3 9-8 9-5 0-9-4-9-9l0-17 17 0c5 0 9 3 9 9z m111 8l-17 0c-6 0-9-3-9-8 0-6 3-9 9-9l17 0c5 0 8 3 8 9 0 5-3 8-8 8z m-77-17l17 0c5 0 8 3 8 9 0 5-3 8-8 8l-17 0c-5 0-9-3-9-8 0-6 4-9 9-9z m136 17l-17 0c-5 0-8-3-8-8 0-6 3-9 8-9l17 0c6 0 9 3 9 9 0 5-3 8-9 8z m52 0l-9 0c-5 0-8-3-8-8 0-6 3-9 8-9l9 0c5 0 8 3 8 9 0 5-3 8-8 8z m230 341l-512 0 0-392 324 0 0-60c0-3 2-7 5-8 4-1 7 0 10 2l45 45 45-45c2-2 4-2 6-2 1 0 3 0 4 0 3 1 5 5 5 8l0 60 68 0z m-85-431l-37 36c-2 2-3 3-6 3-3 0-4-1-6-3l-37-36 0 93c26-16 60-16 86 0z m-29 100c0 0-1 0-1 0-1 0-1 0-2 0 0-1-1-1-1-1-1 0-1 0-2 0 0 0-1 0-2 0 0 0-1 0-1 0-1 0-1 0-2 0-1 0-2 0-3 0-1 0-2 0-3 0-1 0-1 0-2 0 0 0-1 0-1 0-1 0-2 0-3 0 0 0 0 0 0 0-2 1-4 1-6 1-1 1-2 1-3 1-2 1-4 1-6 2-2 1-4 2-6 2 0 1-1 1-1 1-1 1-1 1-1 1 0 0-1 0-1 0-21 12-35 34-35 60 0 37 30 68 68 68 38 0 68-31 68-68 0-33-23-60-54-67z m97-44l-51 0 0 50c16 16 25 37 25 61 0 47-38 85-85 85-47 0-85-38-85-85 0-24 9-45 25-61l0-50-307 0 0 358 478 0z m-94 264l-290 0c-5 0-9-3-9-8 0-5 4-9 9-9l290 0c5 0 9 4 9 9 0 5-4 8-9 8z m-102-51l-188 0c-5 0-9-3-9-8 0-5 4-9 9-9l188 0c5 0 8 4 8 9 0 5-3 8-8 8z m-188-68l162 0c5 0 9 3 9 9 0 5-4 8-9 8l-162 0c-5 0-9-3-9-8 0-6 4-9 9-9z m0-60l162 0c5 0 9 4 9 9 0 5-4 8-9 8l-162 0c-5 0-9-3-9-8 0-5 4-9 9-9z"/>
<glyph glyph-name="diploma-4" unicode="&#77;" d="M461 377l-136 0c-15 16-37 26-60 26-24 0-46-10-61-26l-161 0c-28 0-43-28-43-77 0-51 32-93 68-93l137 0 0-98 60 60 59-60 0 98 137 0c5 0 7 3 7 8 0 5-3 9-8 9-16 0-33 13-42 34l67 0c14 0 26 11 27 24 0 4 0 6 0 10 0 48-22 85-51 85z m-196 9c36 0 66-29 68-65 0 0 0 0 0 0 0-1 0-2 0-4 0-1 0-2 0-3 0 0 0-1 0-2 0 0 0 0-1-1 0-1 0-2 0-2 0 0 0-1 0-1-1-7-3-15-7-22 0 0 0-1 0-1 0 0 0 0-1 0-2-4-4-8-7-11-1-1-2-1-2-2-2-1-4-4-5-5-12-11-29-17-45-17-17 0-33 6-46 17l-5 5c-10 11-17 26-18 42 0 0 0 0 0 0 0 1 0 2 0 3 0 2 0 3 0 4 0 0 0 0 0 0 2 36 32 65 69 65z m-82-43c0 0 0 0 0 0 0-1-1-2-1-3 0-1 0-2 0-3 0 0-1 0-1 0 0-2 0-4-1-5 0 0 0 0 0 0 0-1 0-2 0-3 0 0 0-1 0-1 0-1 0-2 0-3-1-1-1-2-1-3 0 0 0 0 0-1 0-1 0-2 0-4 0-15 4-29 11-42l-108 0c4 8 5 18 5 28 0 1 0 1 0 1-1 5-1 10-2 14-1 9-2 20-6 30-2 4-4 8-6 12l117 0c-3-5-5-11-7-17z m-115-119c-24 0-51 32-51 76 0 14 2 60 26 60 16 0 21-16 25-44 0-3 1-6 1-9 0-6 0-11-1-16-1-7-2-12-5-15 0 0-1 0-1-1-1 0-2 0-2 0-6 0-9 13-9 25 0 5-3 9-8 9-5 0-9-4-9-9 0-37 16-42 26-42l144 0c0-1 0-1 1-1l0-33z m239-74l-42 43-43-43 0 93c25-15 60-15 85 0z m115 74l-98 0 0 33c1 0 1 0 1 1l75 0c5-14 13-26 22-34z m73 59c0-4-4-8-9-8l-81 0c0 0 0 0 0 0l-66 0c3 5 5 11 7 17 0 0 0 0 0 0 0 1 1 2 1 3 0 1 0 2 0 3 1 0 1 0 1 0 0 2 0 3 1 5 0 0 0 0 0 0 0 1 0 2 0 3 0 0 0 1 0 1 0 1 0 2 0 3 1 1 1 2 1 2 0 1 0 1 0 2 0 1 0 2 0 3 0 2 0 3 0 4 0 1 0 1 0 1 0 1 0 2-1 3 0 1 0 2 0 3 0 0 0 1 0 1 0 1 0 2 0 3 0 0 0 0 0 0-1 1-1 3-1 5 0 0 0 0-1 0 0 1 0 2 0 3 0 1-1 2-1 3 0 0 0 0 0 0-2 6-4 12-7 17l122 0c16 0 34-28 34-68 0-4 0-6 0-9z m-230-17c28 0 51 23 51 51 0 29-23 52-51 52-29 0-52-23-52-52 0-28 23-51 52-51z m0 86c18 0 34-16 34-35 0-18-16-34-34-34-19 0-35 16-35 34 0 19 16 35 35 35z"/>
<glyph glyph-name="diploma-5" unicode="&#78;" d="M367 213c24 0 43 19 43 43 0 24-19 43-43 43-24 0-43-19-43-43 0-24 19-43 43-43z m0 69c14 0 26-11 26-26 0-14-12-25-26-25-15 0-26 11-26 25 0 15 11 26 26 26z m136 187l-494 0c-6 0-9-3-9-8l0-341c0-5 3-9 9-9l307 0 0-60c0-3 2-6 6-8 3-1 7 0 9 2l36 44 36-43c1-2 4-3 7-3 0 0 1 0 2 1 4 1 6 4 6 7l0 60 85 0c6 0 9 4 9 9l0 341c0 5-3 8-9 8z m-195-238c-2 6-7 11-13 13l-19 7c-3 1-3 4-3 5 0 1 1 4 5 7l19 7c6 2 10 7 13 13 2 6 1 12-1 18l-9 17c-1 2 0 5 1 6 1 0 3 2 6 0l17-8c5-3 12-4 18-1 6 2 10 7 13 13l7 19c1 3 4 3 5 3 1 0 4 0 7-5l7-19c2-6 6-10 12-13 6-2 12-1 18 1l17 9c3 1 5 0 6-1 1-1 3-3 1-6l-8-17c-3-5-4-12-1-18 2-6 7-10 13-13l18-7c4-1 4-4 4-5 0-1 0-3-5-6l-19-7c-6-2-10-6-13-12-2-6-2-12 1-18l8-17c2-3 0-6 0-6-1-1-3-3-6-1l-14 7-3 1c-6 3-12 4-18 1-1 0-1 0-1 0-4-1-6-4-9-6 0-1-1-2-1-3-1-1-2-3-2-4l-7-18c-2-4-4-4-5-4-1 0-2 0-3 1 0 0-1 0-1 0 0 0 0 0 0 1-1 0-1 1-1 2l-7 18c0 1-1 2-1 2-3 5-7 9-12 11-2 1-4 1-6 2-1 0-2 0-2 0-4 0-7-1-11-2l-18-8c-2-2-5 0-5 0-1 1-3 3-1 6l8 17c3 6 4 12 1 18z m93-157l-27 34c-2 2-5 3-7 3-3 0-5-1-7-2l-27-34 0 108c0 0 0 0 0 0 1 0 2 0 2 0 1-1 3-2 4-4l7-19c3-9 12-15 21-15 9 0 18 6 21 16l7 18c1 3 3 4 4 4 0 0 0 0 2 0z m94 54l-77 0 0 47 2-1c8-4 19-2 25 5 7 6 9 17 5 25l-9 17c-1 2 0 4 0 4 1 1 2 3 4 4l18 7c9 3 15 12 15 21 0 9-6 18-15 21l-18 7c-3 1-3 3-4 4-1 0-1 2 0 4l9 17c4 8 2 19-5 26-6 6-17 8-25 4l-17-9c-2-1-4 0-4 0-1 1-3 2-4 4l-7 18c-3 9-12 15-21 15-9 0-18-6-21-15l-7-18c-1-3-3-4-4-4 0-1-2-1-4 0l-17 9c-9 4-19 2-26-4-6-7-8-18-4-26l9-17c1-2 1-4 0-4-1-1-2-3-4-4l-18-7c-9-3-15-12-15-21 0-9 6-18 15-21l18-7c3-1 4-3 4-4 1 0 1-2 0-4l-9-17c-4-8-2-19 4-25 7-7 17-9 26-5l2 1 0-47-299 0 0 324 478 0z m-435 205l187 0c6 0 9 3 9 8 0 6-3 9-9 9l-187 0c-5 0-9-3-9-9 0-5 4-8 9-8z m0 51l239 0c5 0 8 4 8 9 0 5-3 8-8 8l-239 0c-5 0-9-3-9-8 0-5 4-9 9-9z m0-102l153 0c5 0 9 3 9 8 0 5-4 9-9 9l-153 0c-5 0-9-4-9-9 0-5 4-8 9-8z m0-51l111 0c5 0 8 3 8 8 0 5-3 9-8 9l-111 0c-5 0-9-4-9-9 0-5 4-8 9-8z m0-60l94 0c5 0 8 3 8 8 0 5-3 9-8 9l-94 0c-5 0-9-4-9-9 0-5 4-8 9-8z"/>
<glyph glyph-name="dna-structure" unicode="&#79;" d="M441 9c0 61-18 114-55 161-32 42-74 74-115 105-78 60-151 117-151 229-5 3-8 8-8 8l-33 0c-4 0-8-4-8-8 0-61 18-114 55-162 26-33 58-60 90-86-30-24-64-52-90-86-37-48-55-101-55-162 0-4 4-8 8-8l33 0c4 0 8 4 8 8 0 9 0 17 1 25l58 0c5 0 8 3 8 8 0 4-3 8-8 8l-56 0c4 18 9 34 16 49l202 0c5 0 8 3 8 8 0 4-3 8-8 8l-194 0c10 17 23 33 37 48l100 0c5 0 8 4 8 9 0 4-3 8-8 8l-83 0c16 15 35 31 55 46 72-56 136-112 136-217 0-4 4-8 8-8l33 0c4 0 8 4 8 8 0 0 0 1 0 1z m-266 168c0-1-1-1-1-1-9-10-17-19-25-30-9-11-16-23-22-36-1 0-1-1-1-2-10-20-17-42-20-66 0 0 0 0 0-1-1-8-2-16-2-25l-17 0c2 54 19 102 52 144 26 34 60 62 90 86 4-3 8-6 12-9 1-1 1-1 2-2-24-18-48-37-68-58z m233-161c-1 51-17 95-49 135-29 38-67 67-108 99-40 30-81 62-112 102-33 42-50 90-52 144l17 0c1-51 17-95 49-135 29-38 67-67 108-99 40-30 81-62 112-102 33-42 50-90 52-144z m-237 398c-5 0-8-3-8-8 0-4 3-8 8-8l33 0c4 0 8 4 8 8 0 5-4 8-8 8z m-24 49l242 0c-3-17-8-34-15-49l-138 0c-4 0-8-3-8-8 0-4 4-8 8-8l129 0c-10-17-22-33-37-48l-100 0c-5 0-8-4-8-9 0-4 3-8 8-8l83 0c-10-10-21-19-34-29-3-3-4-8-1-12 3-3 8-4 12-1 36 30 74 64 97 111 1 0 1 1 1 2 10 19 17 41 20 65 0 1 0 1 0 2 1 8 2 16 2 25l17 0c-2-54-19-102-52-144-17-22-39-44-69-69-4-3-4-8-1-11 1-2 4-3 6-3 2 0 4 0 5 2 31 25 54 48 72 71 37 48 55 101 55 162 0 4-4 8-8 8l-33 0c-4 0-8-4-8-8 0-9 0-17-1-25l-244 0c-5 0-8-3-8-8 0-4 3-8 8-8z m218-414l-153 0c-5 0-8-4-8-8 0-5 3-8 8-8l153 0c5 0 8 3 8 8 0 4-3 8-8 8z"/>
<glyph glyph-name="drawing" unicode="&#80;" d="M512 306c0 3-1 5-3 6l-60 61c-2 1-3 2-5 2l0 68c0 1 0 2-1 3 0 1-1 2-1 3-1 0-1 1-1 1l-60 59c0 1 0 1 0 1-1 1-2 1-3 2-1 0-2 0-3 0l-264 0c-5 0-9-3-9-9l0-494c0-6 4-9 9-9l324 0c5 0 9 3 9 9l0 226 65 65c2 2 3 4 3 6z m-316-110l0 120 137 0 0-47-31-32-12-11 0 13c0 5-3 8-8 8l-43 0c-5 0-9-3-9-8l0-43z m0 179l0 35 17 0 0-19z m145-42l-158 0 82 82 81-82z m-94-103l26 0 0-21-7-7-5-6-14 0z m168 222l-31 0 0 31z m-296 43l248 0 0-51c0-5 3-9 8-9l52 0 0-72-77-77 0 30 17 0c3 0 7 1 8 5 1 3 0 7-2 9l-102 103c-4 3-9 3-12 0l-29-29 0 14c0 5-3 9-8 9l-34 0c-5 0-9-4-9-9l0-60c0-1 1-3 1-4l-24-24c-2-2-3-6-2-9 1-4 5-5 8-5l17 0 0-128c0-5 4-9 9-9l56 0-46-46c-1 0-2-1-3-2 0 0-1-1-1-2l-26-26c-1 0-2-1-2-1-1-1-2-2-2-3l-25-25c-3-3-3-8 0-12l45-45-65 0z m308-277l0-201-202 0 30 30z m-222-198l-48 48 15 15 17-17c2-2 4-3 6-3 3 0 5 0 6 3 4 3 4 8 0 12l-17 17 18 18 30-29c2-2 4-3 6-3 2 0 4 1 5 3 4 3 4 8 0 12l-29 29 18 18 18-18c2-1 3-2 6-2 3 0 4 1 6 2 3 4 3 9 0 12l-18 18 18 19 31-31c1-1 3-2 6-2 1 0 4 1 5 3 3 4 3 9 0 12l-30 30 19 18 18-18c1-2 3-3 6-3 1 0 4 1 6 3 3 3 3 9 0 12l-18 18 18 18 29-30c2-2 4-3 6-3 3 0 5 1 6 3 4 3 4 8 0 12l-30 30 13 13c1 0 2 1 2 2l4 4 18-18c2-2 4-3 6-3 2 0 4 1 6 3 4 3 4 8 0 12l-18 18 18 18 30-30c2-2 3-3 6-3 3 0 4 1 6 3 3 3 3 8 0 11l-30 31 18 18 18-19c2-1 3-2 6-2 2 0 4 1 6 2 3 4 3 9 0 12l-18 19 18 18 49-49z m-171 492c-19 0-34-15-34-34l0-401c0-1 0-2 1-4l25-68c1-2 5-5 8-5 4 0 7 3 8 5l25 68c1 2 1 3 1 4l0 401c0 19-15 34-34 34z m-17-94l34 0 0-307-34 0z m0 34l34 0 0-17-34 0z m17 43c10 0 17-8 17-17l0-9-34 0 0 9c0 9 8 17 17 17z m17-417l-17-45-17 45 0 16 34 0 0-16z"/>
<glyph glyph-name="drawing-1" unicode="&#81;" d="M188 171c-62 0-111-50-111-111 0-5 3-9 8-9l205 0c5 0 9 4 9 9 0 61-50 111-111 111z m-94-103c5 48 44 86 94 86 49 0 89-38 94-86z m273 0l-17 0c-2 45-24 86-56 114 0 0 0 0 0 1-1 0-2 1-2 1-29 24-65 38-104 38-87 0-158-68-162-154l-17 0c-6 0-9-3-9-8l0-51c0-6 3-9 9-9l358 0c5 0 8 3 8 9l0 51c0 5-3 8-8 8z m-9-51l-25 0 0 9c0 5-4 8-9 8-5 0-8-3-8-8l0-9-51 0 0 9c0 5-4 8-9 8-5 0-9-3-9-8l0-9-51 0 0 9c0 5-3 8-8 8-5 0-9-3-9-8l0-9-51 0 0 9c0 5-3 8-9 8-5 0-8-3-8-8l0-9-51 0 0 9c0 5-4 8-9 8-5 0-8-3-8-8l0-9-26 0 0 34 17 0c5 0 9 4 9 9 0 41 17 78 45 105l8-9c2-2 4-2 6-2 3 0 5 0 6 2 4 4 4 9 0 12l-7 8c22 16 49 27 78 29l0-9c0-5 4-8 9-8 5 0 8 3 8 8l0 9c30-2 57-13 79-29l-8-8c-3-3-3-8 0-12 2-2 4-2 6-2 3 0 4 0 6 2l9 9c28-27 45-64 45-105 0-5 3-9 8-9l17 0 0-34z m145 495l-102 0c-5 0-8-3-8-9l0-494c0-6 3-9 8-9l102 0c6 0 9 3 9 9l0 494c0 6-3 9-9 9z m-8-495l-85 0 0 17 42 0c5 0 9 4 9 9 0 5-4 8-9 8l-42 0 0 26 25 0c5 0 9 3 9 8 0 5-4 9-9 9l-25 0 0 25 42 0c5 0 9 4 9 9 0 5-4 9-9 9l-42 0 0 25 25 0c5 0 9 4 9 9 0 5-4 8-9 8l-25 0 0 26 42 0c5 0 9 3 9 8 0 5-4 9-9 9l-42 0 0 25 25 0c5 0 9 4 9 9 0 5-4 9-9 9l-25 0 0 25 42 0c5 0 9 4 9 9 0 5-4 8-9 8l-42 0 0 26 25 0c5 0 9 3 9 8 0 5-4 9-9 9l-25 0 0 25 42 0c5 0 9 4 9 9 0 5-4 9-9 9l-42 0 0 25 25 0c5 0 9 4 9 9 0 5-4 8-9 8l-25 0 0 60 85 0z m-486 154c1 0 3 0 4 1l147 87c2 0 3 2 4 3l133 135c2 1 3 1 4 2l29 30c15 15 15 40 0 55l-17 17c-14 14-40 14-54 0l-30-29c0 0 0 0 0 0l-137-138c-1 0-2-1-3-3-1-1-2-2-2-3l-86-145c-2-3-1-7 2-10 1-1 3-2 6-2z m90 145c12-5 23-13 31-22 0 0 0-1 0-1 1 0 2-1 2-2 1-1 1-1 1-1 1-1 1-1 2-2 0-1 0-1 1-1 0-1 0-2 1-2 0-1 0-1 1-2 0 0 0-1 1-1 0-1 0-2 1-2 0-1 1-2 2-4l3-6-56-34-23 24z m-66-112l25 42 17-17z m126 77l-2 3c-10 20-26 36-46 46l121 121c12-21 28-37 49-48z m112 208c8 8 23 8 30 0l17-17c8-9 8-23 0-31l-25-25c-21 10-37 26-48 48z m190-45c9 0 17 7 17 17 0 9-8 17-17 17-10 0-17-8-17-17 0-10 7-17 17-17z"/>
<glyph glyph-name="earth" unicode="&#82;" d="M437 437c-48 48-113 75-181 75-68 0-133-27-181-75-48-48-75-113-75-181 0-68 27-133 75-181 48-48 113-75 181-75 68 0 133 27 181 75 48 48 75 113 75 181 0 68-27 133-75 181z m-189-421c-129 5-232 111-232 240 0 129 103 235 232 240z m16 281c20-3 34-20 34-41 0-21-14-38-34-41z m0-99c29 4 51 28 51 58 0 30-22 54-51 58l0 33c47-4 83-43 83-91 0-48-36-87-83-91z m0-49c56 4 100 50 100 107 0 57-44 103-100 107l0 42c79-4 141-70 141-149 0-79-62-145-141-149z m0-133l0 17c51 2 99 21 137 54 4 3 4 8 1 11-3 4-8 4-11 1-36-30-80-48-127-50l0 42c88 4 157 76 157 165 0 88-69 161-157 165l0 42c111-5 199-96 199-207 0-49-18-97-50-135-3-3-3-8 1-11 1-2 3-2 5-2 2 0 5 1 6 3 35 40 54 92 54 145 0 120-95 219-215 223l0 17c129-5 232-111 232-240 0-129-103-235-232-240z m-191 225c-8 0-15 7-15 15l0 62c0 5-3 9-8 9-4 0-8-4-8-9l0-62c0-14 10-27 23-30l0-19c-7-4-14-10-19-16-3-4-2-9 2-12 3-3 8-2 11 2 5 6 11 10 17 14 1 0 1 0 1 0 6 2 12 4 19 4 25 0 45-21 45-46l0-7c0-4 4-8 8-8l24 0c16 0 29-12 29-28 0-13-10-25-23-28-3 0-6-4-6-8l0-20c0-4 3-8 8-8 5 0 8 4 8 8l0 14c17 7 29 23 29 42 0 25-20 45-45 45l-16 0c0 33-28 60-61 60-5 0-10 0-15-1l0 12c14 3 24 16 24 30l0 10c12-1 33 0 52 0l0-3c0-4 4-8 8-8 5 0 8 4 8 8l0 119c12 7 19 19 19 32 0 21-16 37-37 37l-5 0c-4 0-8-3-8-8 0-4 4-8 8-8l5 0c12 0 21-9 21-21 0-8-5-16-14-19-3-1-5-4-5-8l0-105c-27 0-55 0-59 0-2 1-5 0-7-1-2-2-3-4-3-7l0-18c0-8-6-15-15-15z m147 193c1-1 2-1 3-1 3 0 6 1 8 4 2 4 0 9-4 11-9 5-17 12-22 20-3 4-8 4-12 2-3-3-4-8-2-11 8-11 17-19 29-25z m-97-192l0-3c0-4 4-8 8-8 5 0 8 4 8 8l0 3c0 5-3 9-8 9-4 0-8-4-8-9z"/>
<glyph glyph-name="element" unicode="&#83;" d="M504 512l-496 0c-4 0-8-4-8-8l0-496c0-4 4-8 8-8l496 0c4 0 8 4 8 8l0 496c0 4-4 8-8 8z m-8-496l-480 0 0 480 480 0z m-262 80c0-5-4-8-9-8-4 0-8 3-8 8 0 4 4 8 8 8 5 0 9-4 9-8z m-46 43l0-44c0-4 4-8 8-8 5 0 8 4 8 8l0 44c0 4-3 8-8 8-4 0-8-4-8-8z m120 0l0-44c0-4 3-8 8-8 4 0 8 4 8 8l0 44c0 4-4 8-8 8-5 0-8-4-8-8z m-41 8c-13 0-24-11-24-24l0-11c0-14 11-25 24-25 14 0 25 11 25 25l0 11c0 13-11 24-25 24z m9-35c0-5-4-9-9-9-4 0-8 4-8 9l0 11c0 4 4 8 8 8 5 0 9-4 9-8z m73 57c2 0 4 1 6 3l30 32c4 4 3 9 0 12-3 3-8 3-11 0l-25-27-25 27c-2 1-4 2-6 2-3 0-5-1-6-2l-25-27-25 27c-2 1-4 2-6 2-2 0-4-1-6-2l-25-27-25 27c-1 1-3 2-6 2-2 0-4-1-6-2l-25-27-25 27c-3 3-8 3-11 0-3-3-4-8 0-12l30-32c2-2 4-3 6-3 3 0 5 1 6 3l25 26 25-26c2-2 4-3 6-3 2 0 5 1 6 3l25 26 25-26c1-2 4-3 6-3 2 0 4 1 6 3l25 26 25-26c1-2 3-3 6-3z m-129 255l-33 0c-4 0-8-3-8-8l0-167c0-5 4-9 8-9l33 0c5 0 8 4 8 9l0 59 56 0 0-59c0-5 3-9 8-9l33 0c4 0 8 4 8 9l0 167c0 5-4 8-8 8l-33 0c-5 0-8-3-8-8l0-59-56 0 0 59c0 5-3 8-8 8z m72-84c4 0 8 4 8 9l0 59 16 0 0-151-16 0 0 59c0 4-4 8-8 8l-72 0c-4 0-8-4-8-8l0-59-16 0 0 151 16 0 0-59c0-5 4-9 8-9z m-251-307l430 0c5 0 8 3 8 8l0 65c0 5-3 8-8 8-4 0-8-3-8-8l0-57-414 0 0 414 414 0 0-324c0-5 4-8 8-8 5 0 8 3 8 8l0 332c0 5-3 8-8 8l-430 0c-5 0-8-3-8-8l0-430c0-5 3-8 8-8z m46 384l0-44c0-4 4-8 8-8 5 0 8 4 8 8l0 44c0 4-3 8-8 8-4 0-8-4-8-8z"/>
<glyph glyph-name="flag" unicode="&#84;" d="M397 383l-249 102 0 21c0 4-3 6-6 6l-25 0c-3 0-6-2-6-6l0-500c0-4 3-6 6-6l25 0c3 0 6 2 6 6l0 265 249 102c3 0 4 2 4 5 0 2-1 4-4 5z m-260-372l-15 0 0 490 15 0z m11 462l137-56c-5-13-7-26-7-39 0-14 2-27 7-39l-137-56z m147-130c-4 11-6 23-6 35 0 12 2 23 6 35l86-35z m-85 84c-27 0-49-22-49-49 0-27 22-49 49-49 27 0 48 22 48 49 0 27-21 49-48 49z m37-53l-29 0c-3 0-5-2-5-5 0-3 2-6 5-6l27 0c-1-1-2-2-2-4l-16 0c-3 0-6-2-6-5 0-3 3-6 6-6l6 0c-6-5-14-8-23-8-21 0-38 17-38 38 0 5 1 11 3 15l35 0c3 0 5 3 5 6 0 3-2 5-5 5l-27 0c7 7 16 11 27 11 20 0 37-16 37-37 0-1 0-2 0-4z"/>
<glyph glyph-name="flask" unicode="&#85;" d="M352 276c-17 13-28 32-28 52l0 65 11 0c8 0 15 6 14 16l0 19c0 9-7 16-15 16l-10 0 0 53c0 8-7 15-15 15l-106 0c-8 0-15-7-15-15l0-53-11 0c-8 0-15-7-15-16l0-20c0-9 7-15 15-15l11 0 0-65c0-21-11-39-28-52-41-30-66-79-66-131 0-61 34-116 88-144l1-1 146 0 1 1c54 28 88 83 88 144 0 52-25 101-66 131z m-45 168l-25 0c0 9 7 17 17 17 3 0 6-1 8-3z m-102 51l23 0c2-3 2-5 2-9 0-9-7-17-17-17-3 0-6 1-8 3z m0-42c3 0 5-1 8-1 19 0 34 16 34 34 0 3 0 6-1 9l61 0 0-18c-3 0-5 1-8 1-19 0-34-15-34-34l-60 0z m-26-43l0 17 154 0 0-17z m-8-147c21 15 34 39 34 65l0 65 102 0 0-65c0-25 13-50 34-65 27-19 45-47 54-78-18-20-40-31-61-31-23 0-43 11-62 31-19 23-49 37-82 37l-1 0c-24 0-48-8-67-21 10 24 27 46 49 62z m153-246l-136 0c-47 26-77 74-77 128 0 9 1 18 2 26 2 1 3 2 5 3 16 19 42 31 71 31l0 0c29-1 53-12 70-32 22-24 46-36 74-36 23 0 46 9 67 29 1-7 1-14 1-21 0-54-29-102-77-128z m-77 137c-5 0-8-4-8-9 0-5 3-8 8-8 6 0 9 3 9 8 0 4-3 9-9 9z m-34-94c-5 0-8-4-8-9 0-5 3-8 8-8 5 0 9 3 9 8 0 4-4 9-9 9z m-34 94l-17 0c-9 0-17-8-17-17l0-18c0-9 8-17 17-17l17 0c10 0 17 8 17 17l0 18c0 9-7 17-17 17z m0-35l-17 0 0 18 17 0z m137-17l-17 0c-10 0-17-7-17-17l0-17c0-9 7-17 17-17l17 0c9 0 17 8 17 17l0 17c0 10-8 17-17 17z m0-34l-17 0 0 17 17 0z"/>
<glyph glyph-name="flasks" unicode="&#86;" d="M411 305l0 125c12 2 22 12 22 25 0 13-11 24-24 24l-109 0c-14 0-25-11-25-24 0-13 10-23 22-25l0-125c-25-9-47-25-64-46-3-3-2-8 1-11 2-1 3-2 5-2 3 0 5 1 7 3 16 20 38 34 62 43 3 1 5 4 5 8l0 130 47 0c4 0 8 4 8 8 0 5-4 9-8 9l-60 0c-5 0-9 3-9 8 0 4 4 8 9 8l109 0c4 0 8-4 8-8 0-5-4-8-8-8l-17 0c-4 0-8-4-8-9 0-4 4-8 8-8l3 0 0-130c0-4 2-7 5-8 57-20 96-74 96-134 0-78-64-142-142-142-18 0-36 4-53 11-4 1-9-1-11-5-2-4 0-9 5-10 19-8 39-12 59-12 87 0 158 71 158 158-65 40-124 101-147 101z m12-176c0-4-4-8-8-8-5 0-8 4-8 8 0 5 3 8 8 8 4 0 8-3 8-8z m-33-32c0-5-3-9-8-9-4 0-8 4-8 9 0 4 4 8 8 8 5 0 8-4 8-8z m-82-38c-4 2-9 0-11-4-2-4 0-9 4-11 17-7 35-11 53-11 69 0 125 56 125 125 0 22-5 44-16 63-2 2-5 4-9 4l-3 0c0 0 0 0-1 0-12-4-19-9-24-13-6-5-10-8-21-8-10 0-14 3-20 9-7 5-15 13-31 13-16 0-24-8-31-13-6-6-10-9-20-9-11 0-15 3-21 8-5 4-12 9-24 13-1 0-1 0-1 0l-3 0c-4 1-7-1-8-4-1 0-1 0-1 0-2-4-1-9 3-11 2-1 4-1 6-1l0 0c9-3 13-6 18-10 7-6 14-12 31-12 16 0 24 8 31 13 6 5 10 9 20 9 10 0 14-4 20-9 7-5 15-13 31-13 17 0 24 6 31 12 4 3 8 6 15 9 8-15 12-32 12-49 0-60-49-109-109-109-16 0-32 3-46 10z m-111 242l0 162c12 1 22 12 22 24 0 14-11 25-25 25l-108 0c-14 0-25-11-25-25 0-12 10-23 22-24l0-131c0-4 3-8 8-8 5 0 8 4 8 8l0 131 46 0c5 0 9 4 9 8 0 5-4 8-9 8l-59 0c-5 0-9 4-9 8 0 5 4 9 9 9l108 0c5 0 9-4 9-9 0-4-4-8-9-8l-16 0c-4 0-8-3-8-8 0-4 4-8 8-8l3 0 0-163c0-1 0-2 0-3l80-230c4-14 3-26-3-36-7-9-19-15-34-15l-168 0c-15 0-27 6-34 15-6 10-7 22-3 36l80 230c1 4-1 9-5 10-5 2-9-1-11-5l-79-229c-7-19-5-37 5-51 10-14 26-22 47-22l168 0c21 0 37 8 47 22 10 14 12 32 5 51z m-127-169c-2 2-4 2-7 1-2 0-4-2-5-5l-23-66c-3-9-3-16 1-21 3-6 10-8 20-8l168 0c10 0 17 2 20 8 4 5 4 12 1 21l-23 66c-1 3-3 5-5 5-3 1-5 1-7-1-5-3-9-6-19-6-10 0-14 4-20 9-7 6-15 13-31 13-16 0-24-7-31-13-6-5-10-9-20-9-10 0-14 3-19 6z m50-10c6 6 10 9 20 9 10 0 14-3 20-9 7-5 15-12 31-12 8 0 14 1 19 3l20-56c1-4 1-6 1-7-1 0-3-1-7-1l-168 0c-4 0-6 1-7 1 0 1 0 3 1 7l20 56c5-2 11-3 19-3 16 0 24 7 31 12z"/>
<glyph glyph-name="folder" unicode="&#87;" d="M77 402l0-146c0-4 3-6 7-6l92 0c4 0 7 2 7 6l0 146c0 3-3 6-7 6l-92 0c-4 0-7-3-7-6z m13-7l80 0 0-133-80 0z m411-106l-57 57c-2 2-3 2-5 2l-79 0 0 158c0 3-3 6-6 6l-338 0c-4 0-7-3-7-6l0-500c0-3 3-6 7-6l480 0c4 0 7 3 7 6l0 279c0 1-1 3-2 4z m-56 37l36-35-36 0z m-98 22l-12 0 0 113c0 4-3 7-6 7l-94 0 0 31 112 0z m-125-335l-33 0c2 25 16 46 33 50z m0 436c-17 4-31 25-33 50l33 0z m13 6l31 0 0-442-31 0z m44 0l14 0 0-442-14 0z m27 0l16 0 0-442-16 0z m-284 44l154 0c2-33 22-59 46-63l0-360c-24-4-44-30-46-63l-154 0z m313-486l0 322 98 0 0-50c0-4 3-7 6-7l51 0 0-265z m105 216c-3 0-6-3-6-7l0-96c0-4 3-7 6-7 4 0 7 3 7 7l0 96c0 4-3 7-7 7z m-38 69c-4 0-7-3-7-6l0-235c0-4 3-7 7-7 3 0 6 3 6 7l0 235c0 3-3 6-6 6z m-29 0c-4 0-6-3-6-6l0-235c0-4 2-7 6-7 4 0 6 3 6 7l0 235c0 3-2 6-6 6z m-339 181l98 0c4 0 6 3 6 6 0 4-2 7-6 7l-98 0c-4 0-7-3-7-7 0-3 3-6 7-6z m49-15c0 3-3 6-7 6l-42 0c-4 0-7-3-7-6 0-4 3-6 7-6l42 0c4 0 7 2 7 6z m80-432l-106 0c-4 0-7-3-7-6 0-4 3-7 7-7l106 0c3 0 6 3 6 7 0 3-3 6-6 6z m10 21l-69 0c-3 0-6-3-6-6 0-4 3-7 6-7l69 0c4 0 7 3 7 7 0 3-3 6-7 6z"/>
<glyph glyph-name="folders" unicode="&#88;" d="M126 468l-120 0c-3 0-6-3-6-6l0-428c0-3 3-6 6-6l120 0c3 0 6 3 6 6l0 428c0 3-3 6-6 6z m-6-12l0-41-108 0 0 41z m0-53l0-178-108 0 0 178z m-108-363l0 173 108 0 0-173z m95 78c0 23-18 41-41 41-23 0-41-18-41-41 0-23 18-41 41-41 23 0 41 18 41 41z m-70 0c0 16 13 29 29 29 16 0 29-13 29-29 0-16-13-29-29-29-16 0-29 13-29 29z m52 0c0 13-10 23-23 23-13 0-23-10-23-23 0-13 10-23 23-23 13 0 23 10 23 23z m-34 0c0 6 5 11 11 11 6 0 11-5 11-11 0-6-5-11-11-11-6 0-11 5-11 11z m-27 236l75 0c4 0 6 3 6 6 0 3-2 6-6 6l-75 0c-3 0-6-3-6-6 0-3 3-6 6-6z m0-22l75 0c4 0 6 2 6 6 0 3-2 6-6 6l-75 0c-3 0-6-3-6-6 0-4 3-6 6-6z m75-10l-75 0c-3 0-6-3-6-6 0-4 3-7 6-7l75 0c4 0 6 3 6 7 0 3-2 6-6 6z m106-163c-23 0-41-18-41-41 0-23 18-41 41-41 23 0 41 18 41 41 0 23-18 41-41 41z m0-70c-16 0-29 13-29 29 0 16 13 29 29 29 16 0 29-13 29-29 0-16-13-29-29-29z m0 52c-13 0-23-10-23-23 0-13 10-23 23-23 13 0 23 10 23 23 0 13-10 23-23 23z m0-34c-6 0-11 5-11 11 0 6 5 11 11 11 6 0 11-5 11-11 0-6-5-11-11-11z m-38 247l75 0c4 0 7 3 7 6 0 3-3 6-7 6l-75 0c-3 0-6-3-6-6 0-3 3-6 6-6z m0-22l75 0c4 0 7 2 7 6 0 3-3 6-7 6l-75 0c-3 0-6-3-6-6 0-4 3-6 6-6z m75-10l-75 0c-3 0-6-3-6-6 0-4 3-7 6-7l75 0c4 0 7 3 7 7 0 3-3 6-7 6z m266-253l-119 411c0 1-1 3-3 3-1 1-3 1-4 1l-111-32 0 10c0 3-3 6-6 6l-120 0c-3 0-6-3-6-6l0-428c0-3 3-6 6-6l120 0c3 0 6 3 6 6l0 381 110-383c1-2 3-4 6-4 1 0 1 0 2 0l115 33c1 1 2 2 3 3 1 2 1 3 1 5z m-249 387l0-41-108 0 0 41z m0-53l0-178-108 0 0 178z m-108-363l0 173 108 0 0-173z m292 209l-103-30-49 171 103 30z m-64 221l11-39-103-29-11 39z m12-428l-48 165 104 30 47-166z m16 171c-1 3-4 5-8 4l-43-12c-3-1-5-5-4-8 1-3 3-4 6-4 1 0 1 0 2 0l43 12c3 1 5 5 4 8z m46-143c1-2 3-4 6-4 0 0 1 0 1 0l24 7c3 1 5 4 4 8-1 3-4 5-8 4l-23-7c-3-1-5-4-4-8z m-43 101c-11-3-20-10-25-20-5-9-6-21-3-31 5-18 21-30 39-30 4 0 8 1 12 2 10 3 19 10 24 19 6 10 7 21 4 32-6 22-29 34-51 28z m37-54c-4-7-10-11-18-14-15-4-31 5-36 20-2 8-1 16 3 22 4 7 10 12 17 14 3 1 6 1 8 1 13 0 24-8 28-21 2-7 1-15-2-22z m-4 21c-3 12-16 19-28 15-12-3-19-16-16-28 3-10 12-17 22-17 2 0 4 1 7 1 12 4 19 16 15 29z m-19-17c-6-2-12 1-13 7-2 6 1 12 7 14 1 0 2 0 3 0 5 0 9-3 11-8 1-5-2-12-8-13z m-35 259l-73-21c-3-1-5-4-4-7 1-3 3-5 6-5 1 0 1 0 2 1l72 20c3 1 5 5 4 8-1 3-4 5-7 4z m6-21l-73-21c-3-1-5-4-4-8 1-2 4-4 6-4 1 0 1 0 2 0l72 21c3 1 5 4 4 8-1 3-4 5-7 4z m6-22l-72-21c-4 0-5-4-4-7 0-3 3-4 5-4 1 0 1 0 2 0l72 21c3 1 5 4 4 7-1 3-4 5-7 4z m-384-141l43 0c3 0 6 2 6 6 0 3-3 6-6 6l-43 0c-4 0-7-3-7-6 0-4 3-6 7-6z m89-139l-43 0c-4 0-6-2-6-6 0-3 2-6 6-6l43 0c4 0 6 3 6 6 0 4-2 6-6 6z m85 0l-31 0c-4 0-6-2-6-6 0-3 2-6 6-6l31 0c3 0 6 3 6 6 0 4-3 6-6 6z m-31 4l10 0c4 0 6 3 6 6 0 3-2 6-6 6l-10 0c-4 0-6-3-6-6 0-3 2-6 6-6z m-118 125c0 3-3 6-6 6l-19 0c-4 0-7-3-7-6 0-3 3-6 7-6l19 0c3 0 6 3 6 6z m119 252l43 0c4 0 6 3 6 6 0 4-2 6-6 6l-43 0c-4 0-6-2-6-6 0-3 2-6 6-6z m0-16l19 0c3 0 6 3 6 6 0 4-3 6-6 6l-19 0c-4 0-6-2-6-6 0-3 2-6 6-6z m-143 0l19 0c3 0 6 3 6 6 0 4-3 6-6 6l-19 0c-4 0-6-2-6-6 0-3 2-6 6-6z"/>
<glyph glyph-name="glasses" unicode="&#89;" d="M114 357c-52 0-94-42-94-93 0-52 42-94 94-94 51 0 93 42 93 94 0 51-42 93-93 93z m4-11c7-1 14-2 20-4l-52-156c-6 3-12 6-18 9z m-86-82c0 43 32 78 74 82l-47-143c-17 15-27 37-27 61z m82-82c-6 0-11 0-17 1l52 155c27-13 47-41 47-74 0-45-37-82-82-82z m396 82c0 11-1 22-5 33l5 8c3 5 3 11-1 16-3 4-9 6-14 5l-3-1c-20 31-55 51-94 51-29 0-56-12-76-30l-132 0c-20 18-47 30-76 30-40 0-74-20-94-51l-3 1c-5 1-11-1-14-5-4-5-4-11-1-16l5-8c-4-10-5-22-5-33 0-37 18-70 46-91l-15-28c-2-3-1-7 2-8 1-1 2-1 3-1 2 0 4 1 5 3l14 28c17-10 36-15 57-15 47 0 88 30 104 72l5-3-4-12c-1-3 0-6 3-7 1-1 1-1 2-1 2 0 5 2 5 4l12 33c1 3 0 7-3 8-3 1-6-1-7-4l-4-10-5 4c1 4 2 8 3 13l31 11 31-11c1-5 2-9 3-13l-5-4-4 10c-1 3-4 5-7 4-3-1-4-5-3-8l12-33c0-2 3-4 5-4 1 0 1 0 2 1 3 1 4 4 3 7l-4 12 5 3c16-42 56-72 104-72 21 0 40 5 57 15l14-28c1-2 3-3 5-3 1 0 2 0 3 1 3 1 4 5 2 8l-15 28c28 21 46 54 46 91z m-222 20l-32-12-32 12c-2 8-4 16-7 23 12 5 25 8 39 8 14 0 27-3 39-8-3-7-5-15-7-23z m12 33c-14 6-29 9-44 9-15 0-30-3-44-9-3 6-7 12-12 18l112 0c-5-6-9-12-12-18z m-186-154c-56 0-101 45-101 101 0 55 45 100 101 100 55 0 100-45 100-100 0-56-45-101-100-101z m112 98c0 1 0 2 0 3 0 2-1 5-1 7l14-5z m47 5l14 5c-1-2-1-5-1-7 0-1 0-2 0-3z m125-103c-55 0-100 45-100 101 0 55 45 100 100 100 56 0 101-45 101-100 0-56-45-101-101-101z m0 194c-51 0-93-42-93-93 0-52 42-94 93-94 52 0 94 42 94 94 0 51-42 93-94 93z m-45-25l-32-96c-3 9-5 18-5 28 0 28 15 53 37 68z m-25-110l39 118c4 2 9 3 13 4l-44-133c-3 3-6 7-8 11z m17-20l48 144c2 0 4 0 5 0 25 0 48-11 63-29l-44-133c-6-2-12-2-19-2-20 0-39 7-53 20z m85-14l39 117c7-12 11-26 11-41 0-34-20-63-50-76z"/>
<glyph glyph-name="graduated-student-avatar" unicode="&#90;" d="M378 451c-4 0-8-3-8-7l0-33c0-4 4-7 8-7 4 0 7 3 7 7l0 33c0 4-3 7-7 7z m114-443c-1 6-5 54-27 105-13 31-30 55-51 73-20 18-43 29-69 34 43 29 68 77 68 129 0 11-1 22-3 32 1 2 2 3 2 5l0 81 29 0 0-51c-8-3-13-11-13-19 0-5 2-9 5-13-11-12-11-37-11-46 0-7 0-15 1-21 1-4 4-7 8-7l36 0c4 0 7 3 8 7 1 6 1 14 1 21 0 9 0 34-11 46 3 4 5 8 5 13 0 8-5 16-13 19l0 51 2 0c13 0 23 10 23 22 0 13-10 23-23 23l-406 0c-13 0-23-10-23-23 0-12 10-22 23-22l47 0 0-81c0-2 1-3 2-5-2-10-3-21-3-32 0-52 25-100 68-129-26-5-49-16-69-34-21-18-38-42-51-73-23-52-27-103-27-105 0-2 1-4 2-6 2-1 4-2 6-2l456 0c2 0 4 1 6 2 1 2 2 4 2 6z m-278 158l-41 39c5 1 11 1 17 1 17-7 35-12 53-14z m-59 35l53-51c2-1 4-2 6-2 1 0 3 1 5 2l29 26 0-161-212 0c2 16 9 54 25 92 22 51 53 82 94 94z m-102 296l406 0c4 0 7-4 7-8 0-4-3-7-7-7l-406 0c-4 0-7 3-7 7 0 4 3 8 7 8z m396-106c-3 0-5 3-5 6 0 3 2 5 5 5 3 0 6-2 6-5 0-3-3-6-6-6z m0-15c8 0 12-14 12-38 0-4 0-8-1-12l-22 0c-1 4-1 8-1 12 0 24 4 38 12 38z m-209 2c-14-28-47-64-118-75-5 15-8 30-8 46 0 10 1 20 3 29l123 0z m-124 16l0 73 280 0 0-73z m155-16l124 0c2-9 3-19 3-29 0-16-3-32-8-47-72 12-104 48-119 76z m-53-51c20 17 32 35 38 49 6-13 16-31 35-47 24-21 55-35 93-41-24-49-74-81-128-81-55 0-105 32-128 81 36 7 67 20 90 39z m51-135c18 2 36 7 53 14 6 0 12 0 17-1l-41-39z m-5-16l29-26c2-1 4-2 5-2 2 0 4 1 6 2l53 51c41-12 72-43 94-94 16-38 23-76 25-92l-212 0z"/>
<glyph glyph-name="idea" unicode="&#48;" d="M439 396c1 5 2 10 2 16 0 36-30 66-66 66-26 0-50-16-60-40-21 31-55 49-92 49-44 0-84-26-101-67-11 5-22 7-33 7-49 0-89-40-89-89 0-19 6-38 18-53 10-14 24-25 40-30 0-4-1-7-1-11 0-36 30-66 66-66 11 0 21 3 31 8 15-28 44-46 76-46 35 0 66 20 80 51 12-11 27-17 44-17 16 0 32 7 44 18 11 9 18 22 20 36 3 0 6 0 9 0 47 0 85 38 85 84 0 43-31 78-73 84z m-12-157c-4 0-8 1-13 1-1 1-3 0-4-1-1-1-2-2-2-4-3-28-26-49-54-49-16 0-32 7-42 19-1 2-3 3-5 2-3 0-4-2-5-4-10-30-39-51-72-51-29 0-56 17-69 44 0 2-2 3-3 3-1 1-1 1-2 1-1 0-2-1-3-1-9-6-19-9-30-9-30 0-54 24-54 54 0 5 1 9 2 13 0 3-1 6-4 7-33 10-55 40-55 74 0 42 34 77 77 77 11 0 23-2 33-8 2 0 3 0 5 0 1 1 3 2 3 4 14 39 52 65 93 65 37 0 71-21 88-55 1-2 3-3 6-3 2 1 4 2 5 5 5 25 27 43 53 43 30 0 54-24 54-54 0-7-1-13-3-19-1-2 0-4 1-5 1-2 2-3 4-3 39-2 69-34 69-73 0-40-32-73-73-73z m-189 136c0 0 0 0 0 0-29 0-53-23-53-52-1-11 2-21 8-30 8-11 12-25 12-38l0-9c0-18 14-32 33-32 18 0 32 14 32 32l0 9c0 13 4 26 12 39 6 8 8 18 8 28 0 29-23 52-52 53z m21-129c0-11-10-21-21-21-12 0-22 10-22 21l0 9c0 2 0 4 0 7l43 0c0-3 0-5 0-7z m13 54c-5-9-9-17-11-27l-18 0 0 22 16 14c2 2 3 5 1 8-3 2-6 3-9 0l-13-12-14 12c-3 3-6 2-9 0-2-3-1-6 1-8l16-14 0-22-18 0c-2 10-6 18-11 27-5 6-7 14-7 23 1 22 19 40 42 40 0 0 0 0 0 0 23 0 41-19 41-41 0-8-2-16-7-22z m-34 90c3 0 5 3 5 6l0 29c0 3-2 5-5 5-4 0-6-2-6-5l0-29c0-3 2-6 6-6z m-62-26l-24 15c-3 1-7 0-8-3-2-2-1-6 2-8l25-14c1 0 2-1 2-1 2 0 4 1 6 3 1 3 0 7-3 8z m153-88l-25 14c-2 2-6 1-8-2-1-3 0-6 3-8l24-14c1 0 2-1 3-1 2 0 4 1 5 3 2 3 1 7-2 8z m-158 14l-25-14c-3-1-4-5-2-8 1-2 3-3 5-3 1 0 2 1 3 1l24 14c3 2 4 5 3 8-2 3-6 4-8 2z m152 89l-24-15c-3-1-4-5-3-8 2-2 4-3 6-3 1 0 2 1 2 1l25 14c3 2 4 6 2 8-1 3-5 4-8 3z m55-270c0 23-18 41-41 41-22 0-41-18-41-41 0-22 19-41 41-41 23 0 41 19 41 41z m-41-29c-16 0-29 13-29 29 0 16 13 30 29 30 17 0 30-14 30-30 0-16-13-29-30-29z m39-16c-11 0-20-8-20-19 0-11 9-20 20-20 11 0 20 9 20 20 0 11-9 19-20 19z m0-28c-4 0-8 4-8 9 0 4 4 8 8 8 5 0 9-4 9-8 0-5-4-9-9-9z"/>
<glyph glyph-name="lamp" unicode="&#49;" d="M404 226c-5 0-8-4-8-9 0-5 3-9 8-9 6 0 9 4 9 9 0 4-3 9-9 9z m-5 33l-125 130c7 11 10 24 9 36l12 11c18 16 19 43 4 62-17 18-44 19-62 3l-11-10c-3 1-6 1-8 1-19 1-37-5-51-17l-29-25c-4-4-4-9-1-12l18-22-8-8c-7-7-11-15-12-24-1-10 3-18 9-25 7-7 16-12 26-12 9 0 17 3 23 9l7 5 15-19c2-2 5-3 7-3 3 0 4 0 6 2l11 10 122-129c0-1 0-3 0-5 0-2 1-4 1-6l-142-142-24 0c-34 0-61-26-61-60 0-6 4-9 9-9l243 0c5 0 9 3 9 9 0 34-27 60-61 60l-41 0 104 103c1 0 3 0 5 0 24 0 43 19 43 43 0 26-21 46-47 44z m-151 229c11 10 27 9 37-2 9-10 8-27-2-36l-4-4c-1 4-3 7-5 11-2 4-5 8-8 12-4 4-8 8-13 11-3 2-5 3-8 5z m-67-119c-7-6-18-5-24 2-3 3-4 8-4 12 0 4 2 9 6 12l7 7 19-23 3-4z m42-9l-16 19c0 0 0 0 0 0l-1 2-50 61 24 20c10 9 23 14 37 13 2 0 4 0 6-1 1 0 2-1 3-1 4-1 8-2 12-4 5-3 10-7 15-11 15-18 17-43 5-62-1-1-1-2-2-3-1-1-3-2-4-5-1-1-2-3-4-4z m155-343l-224 0c4 20 21 35 42 35l139 0c21 0 38-15 43-35z m26 174c-1 0-3 0-6 1-2 0-6-1-7-3l-121-120-25 0 132 132c2 3 3 7 2 9-1 3-1 5-1 7 0 2 0 4 1 6 1 3 0 6-1 8l-125 133 7 7c2 1 4 3 5 4 0 1 0 1 1 1l125-131c2-3 6-4 8-3 2 1 4 1 5 1 15 0 27-11 27-26 0-15-12-26-27-26z m-286 182c0 6-4 9-9 9l-34 0c-6 0-9-3-9-9 0-5 3-8 9-8l34 0c5 0 9 3 9 8z m-6-28l-17-18c-4-3-4-8 0-12 1-2 3-2 6-2 2 0 4 0 6 2l17 18c3 3 3 8 0 12-3 3-9 3-12 0z m49-67c6 0 9 3 9 9l0 34c0 5-3 9-9 9-5 0-8-4-8-9l0-34c0-6 3-9 8-9z"/>
<glyph glyph-name="lamp-1" unicode="&#50;" d="M424 309c-1 0-1 0-2 0l-62 85c1 3 2 8 2 12 0 25-19 44-44 44-14 0-28-7-35-17l-45 0c-4 22-22 39-44 43l0 27c0 5-3 9-9 9-5 0-8-4-8-9l0-27c-22-4-40-21-44-43l-71 0c-5 0-9-5-9-9l0-36c0-2 1-5 3-7 1-1 3-2 6-2l9 0 0-68-24-53c-5-10-4-21 2-31 7-10 16-15 28-15l6 0c11 0 21 5 27 14 6 10 7 21 2 31l-24 54 0 68 27 0 0-8c0-15 11-27 26-27l89 0c15 0 26 12 26 27l0 8 27 0c9-13 25-20 41-17l58-83c-1-4-2-9-2-14 0-5 1-9 2-13l-152-199-36 0c-9 0-17-8-17-18l0-17c0-10 8-18 17-18l124 0c10 0 18 8 18 18l0 17c0 10-8 18-18 18l-28 0 131 168c1 0 2 0 3 0 24 0 44 19 44 44 0 25-20 44-44 44z m-329-72c-2-5-7-7-12-7l-6 0c-5 0-10 1-13 6-3 4-3 9-1 14l17 37 16-36c3-5 2-10-1-14z m90 222c16 0 30-11 34-26l-68 0c4 15 17 26 34 26z m53-88c0-6-3-9-8-9l-89 0c-5 0-9 3-9 9l0 8 106 0z m80-353l-124 0 0 17 124 0z m106 220c-2 0-3 1-5 1-3 0-7-1-8-3l-143-183-15 0 146 192c2 2 3 6 1 8-2 4-3 8-3 12 0 3 1 8 3 11 1 3 1 6-1 9l-64 92c-3 3-7 4-10 3-3 0-5 0-7 0-10 0-18 5-22 13-2 2-5 4-8 4l-217 0 0 18 216 0c3 0 6 2 8 4 5 8 13 14 23 14 15 0 26-12 26-27 0-3-1-7-2-11-2-2-1-6 1-8l68-93c2-3 5-4 8-4 2 1 3 1 5 1 15 0 26-11 26-26 0-15-11-27-26-27z m-282 86l-25-25c-3-3-3-9 0-12 2-2 4-3 7-3 2 0 4 1 6 3l25 25c3 3 3 8 0 12-4 4-9 4-13 0z m52-50l0 44c0 5-3 9-9 9-5 0-8-4-8-9l0-44c0-6 3-9 8-9 6 0 9 4 9 9z m54 10c3 0 5 1 6 3 4 3 4 9 0 12l-24 25c-4 4-9 4-13 0-3-4-3-9 0-12l25-25c2-2 3-3 6-3z"/>
<glyph glyph-name="library-1" unicode="&#51;" d="M503 512l-494 0c-6 0-9-3-9-9l0-494c0-6 3-9 9-9l494 0c6 0 9 3 9 9l0 494c0 6-3 9-9 9z m-204-410l-46 0c3 11 3 23 0 35l165 0c10 0 17-8 17-18 0-9-7-17-17-17z m-46 137l165 0c10 0 17-8 17-17 0-10-7-17-17-17l-165 0c3 11 3 23 0 34z m25-51l166 0c9 0 17-8 17-17 0-10-8-17-17-17l-166 0c4 11 4 23 0 34z m169-51c17 1 31 15 31 33 0 17-14 32-31 34 3 5 5 11 5 17 0 19-15 34-34 34l-179 0c-3 0-6-2-8-4-1-3-1-6 0-9 9-12 9-29 0-41-1-3-1-6 0-9 2-3 5-4 8-4l20 0c6-11 6-24 0-35l-20 0c-3 0-6-2-8-5-1-2-1-5 0-8 8-11 9-26 3-38l-29 0 0 163c0 5-4 8-9 8l-68 0c-5 0-9-3-9-8l0-9-59 0c-5 0-9-3-9-9l0-145-34 0 0 188 478 0 0-188-47 0c3 5 4 11 4 17 0 6-2 12-5 18z m-379-35l0 103 51 0 0-103z m120 137l-51 0 0 17 51 0z m-69-9l0-8-51 0 0 17 51 0z m18-17l0 9 51 0 0-120-51 0z m-86 180l34 0 0-86-34 0z m208 55l30 15 8-15-31-15z m-3-34l54-107-54 0z m73-104l-55 107 31 15 52-108z m-90-3l-34 0 0 120 34 0z m-85 0l0 86 34 0 0-86z m-52 0l0 68 35 0 0-68z m137 137l-34 0 0 17 34 0z m-51-34l-34 0 0 17 34 0z m-51-9l0-8-35 0 0 17 35 0z m-52 17l0-8-34 0 0 17 34 0z m-68 77l478 0 0-188-137 0 12 6c5 2 6 7 5 11l-59 123-15 31c-1 2-2 3-4 4-3 1-5 1-7 0l-34-16 0 3c0 5-3 9-9 9l-51 0c-5 0-8-4-8-9l0-25-43 0c-5 0-8-4-8-9l0-8-35 0 0 8c0 5-3 9-8 9l-51 0c-5 0-9-4-9-9l0-128-17 0z m0-410l188 0 0-68-188 0z m205 0l68 0 0-68-68 0z m273-68l-188 0 0 68 188 0z m-384 43c-5 0-9-4-9-9 0-5 4-8 9-8 5 0 8 3 8 8 0 4-3 9-8 9z m290 0c-5 0-8-4-8-9 0-5 3-8 8-8 5 0 9 3 9 8 0 4-4 9-9 9z m-307 128c-5 0-9-4-9-9l0-51c0-5 4-9 9-9 5 0 8 4 8 9l0 51c0 5-3 9-8 9z m68 17c-5 0-8-4-8-9l0-68c0-5 3-9 8-9 5 0 9 4 9 9l0 68c0 5-4 9-9 9z"/>
<glyph glyph-name="lockers" unicode="&#52;" d="M236 492l-165 0c-3 0-6-3-6-6l0-445c0-3 3-6 6-6l165 0c3 0 5 3 5 6l0 445c0 3-2 6-5 6z m-6-446l-154 0 0 435 154 0z m-109 350l65 0c3 0 5 2 5 5 0 4-2 6-5 6l-65 0c-3 0-6-2-6-6 0-3 3-5 6-5z m0-20l65 0c3 0 5 3 5 6 0 3-2 5-5 5l-65 0c-3 0-6-2-6-5 0-3 3-6 6-6z m0-20l65 0c3 0 5 3 5 6 0 3-2 6-5 6l-65 0c-3 0-6-3-6-6 0-3 3-6 6-6z m-35-302l46 0c3 0 6 2 6 6 0 3-3 5-6 5l-46 0c-3 0-6-2-6-5 0-4 3-6 6-6z m0 17l18 0c3 0 5 3 5 6 0 3-2 5-5 5l-18 0c-3 0-6-2-6-5 0-3 3-6 6-6z m98 390l35 0c3 0 5 3 5 6 0 3-2 6-5 6l-35 0c-4 0-6-3-6-6 0-3 2-6 6-6z m35-6l-7 0c-3 0-6-2-6-5 0-3 3-6 6-6l7 0c3 0 5 3 5 6 0 3-2 5-5 5z m-11-168l-14 0c-3 0-6-2-6-5 0-3 3-6 6-6l14 0c3 0 5-2 5-4 0-3 2-6 5-6 3 0 6 3 6 6 0 8-7 15-16 15z m242 225l-183 0c-4 0-8-2-11-4-3 2-7 4-11 4l-183 0c-10 0-17-8-17-17l0-463c0-10 7-17 17-17l3 0 0-9c0-3 3-6 6-6l39 0c3 0 6 3 6 6l0 9 75 0 0-9c0-3 2-6 5-6l40 0c3 0 5 3 5 6l0 9 4 0c4 0 8 2 11 4 3-2 7-4 11-4l4 0 0-9c0-3 2-6 5-6l40 0c3 0 5 3 5 6l0 9 75 0 0-9c0-3 3-6 6-6l39 0c3 0 6 3 6 6l0 9 3 0c10 0 17 7 17 17l0 463c0 9-7 17-17 17z m-346-501l-28 0 0 4 28 0z m126 0l-28 0 0 4 28 0z m15 15l-183 0c-3 0-6 3-6 6l0 463c0 3 3 6 6 6l183 0c3 0 5-3 5-6 0 0 0 0 0 0l0-463c0 0 0 0 0 0 0-3-2-6-5-6z m65-15l-28 0 0 4 28 0z m126 0l-28 0 0 4 28 0z m20 21c0-3-3-6-6-6l-183 0c-3 0-5 3-5 6 0 0 0 0 0 0l0 463c0 0 0 0 0 0 0 3 2 6 5 6l183 0c3 0 6-3 6-6z m-15 460l-165 0c-3 0-5-3-5-6l0-445c0-3 2-6 5-6l165 0c3 0 6 3 6 6l0 445c0 3-3 6-6 6z m-5-446l-154 0 0 435 154 0z m-110 350l65 0c3 0 6 2 6 5 0 4-3 6-6 6l-65 0c-3 0-5-2-5-6 0-3 2-5 5-5z m0-20l65 0c3 0 6 3 6 6 0 3-3 5-6 5l-65 0c-3 0-5-2-5-5 0-3 2-6 5-6z m0-20l65 0c3 0 6 3 6 6 0 3-3 6-6 6l-65 0c-3 0-5-3-5-6 0-3 2-6 5-6z m-35-302l46 0c4 0 6 2 6 6 0 3-2 5-6 5l-46 0c-3 0-5-2-5-5 0-4 2-6 5-6z m133 11l-14 0c-3 0-6-2-6-5 0-4 3-6 6-6l14 0c3 0 6 2 6 6 0 3-3 5-6 5z m-133 6l18 0c3 0 6 3 6 6 0 3-3 5-6 5l-18 0c-3 0-5-2-5-5 0-3 2-6 5-6z m98 390l35 0c3 0 6 3 6 6 0 3-3 6-6 6l-35 0c-3 0-6-3-6-6 0-3 3-6 6-6z m35-6l-7 0c-3 0-5-2-5-5 0-3 2-6 5-6l7 0c3 0 6 3 6 6 0 3-3 5-6 5z m-6-183c0-3 3-6 6-6 3 0 6 3 6 6 0 8-8 15-16 15l-15 0c-3 0-5-2-5-5 0-3 2-6 5-6l15 0c2 0 4-2 4-4z"/>
<glyph glyph-name="lunch" unicode="&#53;" d="M117 243c-10 0-19-9-19-19 0-11 9-20 19-20 11 0 20 9 20 20 0 10-9 19-20 19z m0-29c-5 0-9 4-9 10 0 5 4 9 9 9 5 0 10-4 10-9 0-6-5-10-10-10z m41-61c-13 0-24-11-24-24 0-14 11-24 24-24 14 0 25 10 25 24 0 13-11 24-25 24z m0-38c-7 0-14 6-14 14 0 8 7 14 14 14 8 0 15-6 15-14 0-8-7-14-15-14z m353 83c-4 29-24 53-52 63-24 8-51 6-74-6-5-2-9-4-14-4 3 29 28 52 59 52 3 0 6 3 6 6 0 4-3 6-6 6-13 0-25-3-35-9-5 41-40 73-82 73-3 0-6-3-6-7 0-40 30-75 69-81-10-11-16-25-18-40-4 0-9 2-13 4-21 12-46 14-69 7l9 112c8 1 13 8 13 16 0 9-7 16-16 16l-50 0 17 52 103 0c4 0 6 3 6 6l0 23c0 3-2 6-6 6l-116 0c-7 0-14-5-16-12 0 0 0 0 0 0l-25-75-179 0c-9 0-16-7-16-16 0-8 6-15 13-16l28-331c1-14 12-24 26-24l165 0c13 0 24 10 25 24l2 24c2-2 4-4 5-5l29-29c15-16 40-19 58-6 8 6 19 6 27 0 8-5 17-8 26-8 12 0 24 5 33 14l28 29c36 36 52 85 46 136z m-192 168c34-3 61-30 64-63-34 3-60 30-64 63z m-88-254l-4-45c-1-9-8-16-17-16l-122 0c-9 0-16 7-16 16l-19 214c12 0 19-2 26-5 9-2 18-5 36-5 18 0 27 3 36 5 8 3 16 5 32 5 16 0 24-2 32-5 8-2 16-4 29-5l-3-28c-12-12-20-28-22-45-4-30 0-60 12-86z m14 172c-12 0-19 2-26 4-7 2-14 4-24 5l26 81 32 0z m-63 10c-4 0-8-1-11-1l27 81 10 0z m-24-3c-4-1-7-2-11-3-8-2-16-4-32-4-16 0-24 2-32 4-8 3-16 5-31 6l-6 80 139 0z m107 83l7 0-9-116c-3-2-6-3-8-5z m-33 103c0 0 0 0 0 0 0 2 2 4 4 4l110 0 0-10-102 0c-2 0-5-2-5-5l-20-60-11 0z m-216-83l266 0c2 0 4-2 4-4 0-2-2-4-4-4l-266 0c-2 0-4 2-4 4 0 2 2 4 4 4z m229-350c-1-7-7-12-13-12l-165 0c-7 0-13 5-14 12l-27 330 7 0 26-308c1-15 14-27 29-27l122 0c15 0 28 12 29 27l2 25c2-3 5-7 7-10z m211 26l-28-29c-11-11-29-13-43-3-6 4-13 6-20 6-7 0-15-2-21-6-13-10-31-8-42 3l-29 29c-33 34-48 79-42 126 4 24 20 45 44 53 21 7 44 6 64-5 16-8 35-8 52 0 19 11 43 12 64 5 23-8 40-29 43-53 6-47-9-92-42-126z m-168 14c-20 20-33 45-37 73 0 3-3 5-7 5-3-1-5-4-5-7 4-30 18-58 40-79l28-29c1-2 3-2 4-2 2 0 4 0 5 2 2 2 2 6 0 8z m165 158c-4 1-9 2-13 3-3 1-6-2-7-5-1-3 2-7 5-7 4-1 7-2 10-3 17-6 28-20 30-37 1-6 2-12 2-19 0-3 2-6 6-6 0 0 0 0 0 0 3 0 6 3 6 6 0 7 0 14-1 21-3 22-18 40-38 47z m-42 2c-6-1-12-4-17-6-3-2-4-6-2-9 1-2 3-3 5-3 1 0 2 0 3 1 4 2 9 4 14 5 3 1 5 4 4 7 0 4-4 6-7 5z m-237-34c2 0 3 1 4 2 2 1 2 3 2 5 0 1 0 3-2 4-1 1-2 2-4 2-2 0-3-1-4-2-2-1-2-3-2-4 0-2 0-4 2-5 1-1 2-2 4-2z m-75-87c-1 0-3 0-4-2-1-1-2-2-2-4 0-2 1-3 2-4 1-2 3-2 4-2 2 0 4 0 5 2 1 1 2 2 2 4 0 2-1 3-2 4-1 2-3 2-5 2z m95-28c-2 0-3-1-4-2-2-1-2-3-2-5 0-1 0-3 2-4 1-1 2-2 4-2 2 0 3 1 4 2 2 1 2 3 2 4 0 2 0 4-2 5-1 1-2 2-4 2z"/>
<glyph glyph-name="magnet" unicode="&#54;" d="M471 512l-141 0c-5 0-9-4-9-8l0-281c0-36-29-65-65-65-36 0-65 29-65 65l0 281c0 4-4 8-9 8l-141 0c-5 0-8-4-8-8l0-281c0-123 100-223 223-223 123 0 223 100 223 223l0 281c0 4-3 8-8 8z m-297-16l0-82-125 0 0 82z m82-480c-114 0-207 93-207 207l0 175 125 0 0-175c0-45 37-81 82-81 45 0 82 36 82 81l0 175 68 0c4 0 8 3 8 8 0 4-4 8-8 8l-68 0 0 82 125 0 0-82-25 0c-4 0-8-4-8-8 0-5 4-8 8-8l25 0 0-175c0-114-93-207-207-207z m-92 76c0-5-4-9-8-9-5 0-8 4-8 9 0 4 3 8 8 8 4 0 8-4 8-8z m-33 32c0-4-3-8-8-8-4 0-8 4-8 8 0 5 4 8 8 8 5 0 8-3 8-8z m299 202c0-4-4-8-8-8-5 0-8 4-8 8 0 5 3 8 8 8 4 0 8-3 8-8z"/>
<glyph glyph-name="magnifying-glass" unicode="&#55;" d="M354 512c-87 0-158-71-158-158 0-41 16-78 41-106l-11-10-9 9c0 0 0 0-1 0 0 0 0 1 0 1l-7 7c-3 3-9 3-12 0-3-3-3-8 0-12l2-2-197-196c-3-3-3-9 0-12l31-31c2-1 4-2 6-2 2 0 4 1 6 2l196 197 2-2c2-2 4-2 6-2 2 0 4 0 6 2 3 3 3 8 0 11l-18 18 11 11c28-26 65-41 106-41 87 0 158 71 158 158 0 87-71 158-158 158z m-315-492l-19 19 191 191 19-20z m315 192c-78 0-142 64-142 142 0 78 64 142 142 142 78 0 142-64 142-142 0-78-64-142-142-142z m0 267c-69 0-125-56-125-125 0-69 56-125 125-125 27 0 54 8 75 25 4 3 5 8 2 11-3 4-8 5-11 2-19-14-42-22-66-22-60 0-109 49-109 109 0 60 49 109 109 109 60 0 109-49 109-109 0-24-8-46-22-65-3-4-2-9 2-12 3-3 8-2 11 2 17 22 25 48 25 75 0 69-56 125-125 125z m0-190c-4 0-8-4-8-8 0-5 4-9 8-9 45 0 82 37 82 82 0 45-37 82-82 82-15 0-30-5-43-13-4-2-5-7-3-11 2-4 7-5 11-3 11 7 23 10 35 10 36 0 65-29 65-65 0-36-29-65-65-65z m-69 109c-8-13-13-29-13-44 0-4 4-8 9-8 4 0 8 4 8 8 0 12 3 24 10 35 2 4 1 9-3 11-4 2-9 1-11-2z"/>
<glyph glyph-name="markers" unicode="&#56;" d="M491 338l-4 0 0 30c0 3-3 6-6 6-13 0-23 10-23 23l0 22c0 3-3 5-6 5l-4 0 0 42c0 2-1 4-3 5-1 1-3 1-5 0l-36-13c-2-1-3-3-3-6l0-28-5 0c-3 0-6-2-6-5l0-22c0-13-10-23-22-23-4 0-6-3-6-6l0-30-5 0c-3 0-5-2-5-6l0-299c0-18 14-33 33-33l79 0c18 0 33 15 33 33l0 299c0 4-3 6-6 6z m-79 110l24 9 0-33-24 0z m-10-51l0 16 44 0 0-16c0-9 4-17 9-23l-62 0c6 6 9 14 9 23z m-29-35l102 0 0-24-102 0z m112-329c0-12-10-21-21-21l-79 0c-12 0-22 9-22 21l0 293 122 0z m-29 185l-63 0c-4 0-6-3-6-6l0-138c0-3 2-6 6-6l63 0c3 0 6 3 6 6l0 138c0 3-3 6-6 6z m-6-138l-52 0 0 126 52 0z m-75 242c-3 0-6-3-6-6l0-82c0-3 3-6 6-6 3 0 6 3 6 6l0 82c0 3-3 6-6 6z m18-50c3 0 6 2 6 6l0 38c0 3-3 6-6 6-3 0-6-3-6-6l0-38c0-4 3-6 6-6z m80-195c-3 0-6-3-6-6l0-38c0-3 3-6 6-6 3 0 6 3 6 6l0 38c0 3-3 6-6 6z m-178 435l-78 0c-19 0-34-15-34-33l0-446c0-18 15-33 34-33l78 0c19 0 34 15 34 33l0 446c0 18-15 33-34 33z m-78-12l78 0c12 0 22-9 22-21l0-141-28 0 0 86c0 3-3 6-6 6l-54 0c-3 0-6-3-6-6l0-86-28 0 0 141c0 12 10 21 22 21z m60-82l0-142c0-5-4-9-9-9l-24 0c-5 0-9 4-9 9l0 142z m40-385c0-12-10-21-22-21l-78 0c-12 0-22 9-22 21l0 293 28 0 0-50c0-11 10-21 21-21l24 0c11 0 21 10 21 21l0 50 28 0z m-29 185l-64 0c-3 0-5-3-5-6l0-138c0-3 2-6 5-6l64 0c3 0 5 3 5 6l0 138c0 3-2 6-5 6z m-6-138l-52 0 0 126 52 0z m-75 263c3 0 5 2 5 6l0 82c0 3-2 5-5 5-4 0-6-2-6-5l0-82c0-4 2-6 6-6z m0 98c3 0 5 3 5 6l0 8c0 3-2 6-5 6-4 0-6-3-6-6l0-8c0-3 2-6 6-6z m-80 71l-79 0c-18 0-33-15-33-33l0-446c0-18 15-33 33-33l79 0c19 0 33 15 33 33l0 446c0 18-14 33-33 33z m-79-12l79 0c12 0 22-9 22-21l0-141-28 0 0 86c0 3-3 6-6 6l-54 0c-3 0-6-3-6-6l0-86-28 0 0 141c0 12 10 21 21 21z m61-82l0-142c0-5-4-9-9-9l-24 0c-5 0-9 4-9 9l0 142z m40-385c0-12-10-21-22-21l-79 0c-11 0-21 9-21 21l0 293 28 0 0-50c0-11 9-21 21-21l24 0c11 0 21 10 21 21l0 50 28 0z m-30 185l-63 0c-3 0-6-3-6-6l0-138c0-3 3-6 6-6l63 0c4 0 6 3 6 6l0 138c0 3-2 6-6 6z m-5-138l-52 0 0 126 52 0z m-76 263c4 0 6 2 6 6l0 82c0 3-2 5-6 5-3 0-6-2-6-5l0-82c0-4 3-6 6-6z m0 98c4 0 6 3 6 6l0 8c0 3-2 6-6 6-3 0-6-3-6-6l0-8c0-3 3-6 6-6z"/>
<glyph glyph-name="medal" unicode="&#57;" d="M256 213c-24 0-43-18-43-42 0-24 19-43 43-43 24 0 43 19 43 43 0 24-19 42-43 42z m0-68c-15 0-26 11-26 26 0 14 11 25 26 25 15 0 26-11 26-25 0-15-11-26-26-26z m85 155l0 195 26 0c5 0 8 3 8 8 0 6-3 9-8 9l-222 0c-5 0-8-3-8-9 0-5 3-8 8-8l26 0 0-195c-46-29-77-80-77-138 0-89 72-162 162-162 90 0 162 73 162 162 0 70-35 114-77 138z m50-191l-48 62 42 62c10-19 16-42 16-71 0-18-3-36-10-53z m-170-3c-2 3-4 5-8 5l-75-7 48 62c2 3 2 6 0 10l-41 61 67-7c4 0 7 2 9 5l35 63 35-63c2-3 5-5 9-5l67 7-41-61c-3-4-3-8 0-10l48-62-74 7c-4 0-7-2-9-5l-35-77z m149 149l-66-7-33 58c11-1 24-4 37-9 7-2 14-6 21-9 1-1 2-2 3-2 14-7 27-18 38-31z m-182 240l25 0 0-102c0-6 4-9 9-9 5 0 8 3 8 9l0 102 17 0 0-120c0-5 4-8 9-8 5 0 9 3 9 8l0 120 17 0 0-102c0-6 3-9 8-9 5 0 9 3 9 9l0 102 25 0 0-186c-23 11-48 15-68 15-1 0-3 0-4 0-1 0-1 0-2 0-1 0-2 0-3 0 0 0-1 0-1 0-1 0-2 0-3 0-1 0-1 0-2 0-1 0-1-1-2-1-1 0-1 0-2 0-1 0-2 0-3 0 0 0 0 0-1 0-16-3-31-7-45-14z m-6-208c0 0 1 0 1 1 18 10 38 16 59 18l-33-58-65 7c11 12 24 23 38 32z m-54-56l41-60-48-62c-7 17-10 35-10 53 0 25 6 49 17 69z m4-145l76 8 35-76c-47 4-88 30-111 68z m138-68l34 75 76-7c-23-38-64-64-110-68z"/>
</font>
</defs>
</svg>
